<svg xmlns="http://www.w3.org/2000/svg" xmlns:xlink="http://www.w3.org/1999/xlink" zoomAndPan="magnify" preserveAspectRatio="xMidYMid meet" version="1.0" viewBox="44.05 271 1351.42 267.93"><defs><clipPath id="e00e49dad7"><path d="M 346 510 L 434 510 L 434 536.484375 L 346 536.484375 Z M 346 510 " clip-rule="nonzero"/></clipPath><clipPath id="e718895214"><path d="M 44.050781 410 L 123 410 L 123 503 L 44.050781 503 Z M 44.050781 410 " clip-rule="nonzero"/></clipPath><clipPath id="355ec154e7"><path d="M 571 410 L 649.800781 410 L 649.800781 503 L 571 503 Z M 571 410 " clip-rule="nonzero"/></clipPath><clipPath id="1a293a5d6e"><path d="M 52 362.464844 L 75 362.464844 L 75 393 L 52 393 Z M 52 362.464844 " clip-rule="nonzero"/></clipPath><clipPath id="b07af533e2"><path d="M 140 362.464844 L 145 362.464844 L 145 393 L 140 393 Z M 140 362.464844 " clip-rule="nonzero"/></clipPath><clipPath id="8ff96eb9f3"><path d="M 198 362.464844 L 203 362.464844 L 203 393 L 198 393 Z M 198 362.464844 " clip-rule="nonzero"/></clipPath><clipPath id="c81a7e061e"><path d="M 239 362.464844 L 260 362.464844 L 260 394 L 239 394 Z M 239 362.464844 " clip-rule="nonzero"/></clipPath><clipPath id="002f673cfe"><path d="M 290 362.464844 L 295 362.464844 L 295 393 L 290 393 Z M 290 362.464844 " clip-rule="nonzero"/></clipPath><clipPath id="917a246b57"><path d="M 1369 412 L 1395.472656 412 L 1395.472656 445 L 1369 445 Z M 1369 412 " clip-rule="nonzero"/></clipPath><clipPath id="5e824bbf94"><path d="M 811 271.003906 L 953 271.003906 L 953 347 L 811 347 Z M 811 271.003906 " clip-rule="nonzero"/></clipPath><clipPath id="c8a3082b97"><path d="M 846 529 L 873 529 L 873 538.898438 L 846 538.898438 Z M 846 529 " clip-rule="nonzero"/></clipPath><clipPath id="34273071c4"><path d="M 766.699219 342 L 999 342 L 999 535 L 766.699219 535 Z M 766.699219 342 " clip-rule="nonzero"/></clipPath><clipPath id="86ac53be43"><path d="M 893 529 L 920 529 L 920 538.898438 L 893 538.898438 Z M 893 529 " clip-rule="nonzero"/></clipPath></defs><g clip-path="url(#e00e49dad7)"><path fill="#f4dfb9" d="M 410.328125 510.84375 C 408.960938 512.085938 407.488281 513.191406 405.917969 514.160156 C 404.34375 515.128906 402.695312 515.945312 400.96875 516.609375 C 399.246094 517.269531 397.476562 517.769531 395.65625 518.105469 C 393.839844 518.4375 392.007812 518.601562 390.160156 518.59375 C 388.292969 518.605469 386.4375 518.449219 384.59375 518.117188 C 382.753906 517.785156 380.960938 517.289062 379.210938 516.625 C 377.464844 515.960938 375.789062 515.144531 374.195312 514.171875 C 372.597656 513.203125 371.101562 512.089844 369.707031 510.84375 L 346.605469 510.84375 C 354.800781 525.996094 370.984375 536.332031 390.144531 536.332031 C 409.191406 536.332031 425.167969 525.996094 433.324219 510.84375 Z M 410.328125 510.84375 " fill-opacity="1" fill-rule="nonzero"/></g><path fill="#f4dfb9" d="M 585.820312 401.792969 C 584.453125 400.550781 582.980469 399.445312 581.410156 398.476562 C 579.835938 397.507812 578.1875 396.691406 576.464844 396.027344 C 574.738281 395.363281 572.96875 394.867188 571.152344 394.53125 C 569.332031 394.199219 567.5 394.035156 565.652344 394.039062 C 563.785156 394.027344 561.929688 394.1875 560.089844 394.519531 C 558.246094 394.851562 556.453125 395.347656 554.703125 396.011719 C 552.957031 396.671875 551.28125 397.492188 549.6875 398.460938 C 548.089844 399.433594 546.59375 400.542969 545.203125 401.792969 L 522.097656 401.792969 C 530.300781 386.667969 546.476562 376.304688 565.636719 376.304688 C 584.683594 376.304688 600.664062 386.640625 608.816406 401.792969 Z M 585.820312 401.792969 " fill-opacity="1" fill-rule="nonzero"/><g clip-path="url(#e718895214)"><path fill="#f4dfb9" d="M 83.699219 410.636719 C 96.398438 410.636719 106.085938 413.980469 112.765625 420.664062 C 119.449219 427.351562 122.789062 437.554688 122.792969 451.277344 L 122.792969 502.03125 L 105.132812 502.03125 L 105.132812 452.292969 C 105.132812 446.90625 104.359375 442.277344 102.8125 438.40625 C 102.136719 436.574219 101.191406 434.898438 99.972656 433.371094 C 98.757812 431.847656 97.332031 430.550781 95.699219 429.484375 C 92.5 427.425781 88.445312 426.398438 83.53125 426.402344 C 78.378906 426.402344 74.242188 427.449219 71.09375 429.574219 C 69.496094 430.664062 68.113281 431.976562 66.9375 433.515625 C 65.765625 435.054688 64.867188 436.738281 64.238281 438.570312 C 62.8125 442.449219 62.097656 447.023438 62.097656 452.292969 L 62.097656 502.015625 L 44.429688 502.015625 L 44.429688 451.261719 C 44.429688 437.3125 47.832031 427.054688 54.632812 420.484375 C 61.433594 413.917969 71.121094 410.632812 83.699219 410.636719 " fill-opacity="1" fill-rule="nonzero"/></g><path fill="#f4dfb9" d="M 255.308594 502.015625 C 242.613281 502.015625 232.925781 498.671875 226.246094 491.988281 C 219.570312 485.300781 216.226562 475.101562 216.21875 461.378906 L 216.21875 410.636719 L 233.878906 410.636719 L 233.878906 460.367188 C 233.878906 465.742188 234.648438 470.371094 236.195312 474.246094 C 236.875 476.070312 237.816406 477.746094 239.03125 479.269531 C 240.246094 480.792969 241.664062 482.085938 243.292969 483.152344 C 246.503906 485.226562 250.570312 486.261719 255.484375 486.261719 C 260.632812 486.261719 264.765625 485.210938 267.914062 483.089844 C 269.511719 482 270.898438 480.683594 272.070312 479.144531 C 273.242188 477.605469 274.140625 475.921875 274.769531 474.089844 C 276.203125 470.207031 276.914062 465.625 276.914062 460.371094 L 276.914062 410.636719 L 294.578125 410.636719 L 294.578125 461.394531 C 294.578125 475.34375 291.175781 485.601562 284.378906 492.167969 C 277.578125 498.730469 267.886719 502.019531 255.308594 502.03125 " fill-opacity="1" fill-rule="nonzero"/><path fill="#f4dfb9" d="M 384.246094 431.683594 C 382.652344 428.289062 380.597656 425.199219 378.089844 422.414062 C 375.578125 419.628906 372.71875 417.265625 369.507812 415.328125 C 362.949219 411.359375 355.011719 409.417969 345.699219 409.417969 C 336.390625 409.417969 328.375 411.359375 321.8125 415.328125 C 318.601562 417.269531 315.726562 419.625 313.191406 422.390625 C 310.660156 425.160156 308.566406 428.230469 306.914062 431.601562 C 303.511719 438.570312 301.730469 446.667969 301.730469 455.894531 C 301.730469 465.121094 303.410156 473.0625 306.828125 480.105469 C 308.441406 483.480469 310.511719 486.546875 313.035156 489.308594 C 315.5625 492.066406 318.433594 494.398438 321.652344 496.304688 C 328.210938 500.109375 336.148438 502.054688 345.539062 502.054688 C 354.925781 502.054688 362.949219 500.109375 369.429688 496.304688 C 372.632812 494.398438 375.492188 492.0625 378.003906 489.300781 C 380.511719 486.539062 382.566406 483.472656 384.160156 480.101562 C 387.566406 473.058594 389.203125 465.121094 389.203125 456.050781 C 389.203125 446.820312 387.585938 438.640625 384.261719 431.679688 M 369.035156 471.03125 C 368.191406 473.257812 367.046875 475.3125 365.597656 477.203125 C 364.152344 479.09375 362.460938 480.734375 360.535156 482.128906 C 356.652344 484.882812 351.710938 486.257812 345.554688 486.257812 C 339.398438 486.257812 334.460938 484.882812 330.574219 482.128906 C 328.632812 480.765625 326.9375 479.148438 325.484375 477.277344 C 324.03125 475.402344 322.886719 473.355469 322.054688 471.136719 C 320.273438 466.210938 319.414062 461.132812 319.476562 455.894531 C 319.429688 450.714844 320.292969 445.695312 322.070312 440.832031 C 322.910156 438.605469 324.054688 436.546875 325.503906 434.65625 C 326.953125 432.769531 328.640625 431.128906 330.574219 429.742188 C 334.460938 426.90625 339.480469 425.535156 345.554688 425.535156 C 351.625 425.535156 356.652344 426.90625 360.535156 429.742188 C 362.445312 431.152344 364.121094 432.800781 365.566406 434.6875 C 367.011719 436.570312 368.167969 438.621094 369.035156 440.832031 C 370.882812 445.683594 371.773438 450.703125 371.707031 455.894531 C 371.765625 461.105469 370.875 466.144531 369.035156 471.019531 " fill-opacity="1" fill-rule="nonzero"/><path fill="#f4dfb9" d="M 434.257812 502.015625 C 421.5625 502.015625 411.875 498.671875 405.195312 491.988281 C 398.519531 485.300781 395.175781 475.101562 395.167969 461.378906 L 395.167969 410.636719 L 412.832031 410.636719 L 412.832031 460.367188 C 412.832031 465.742188 413.605469 470.371094 415.152344 474.246094 C 415.824219 476.078125 416.773438 477.753906 417.988281 479.28125 C 419.203125 480.808594 420.628906 482.105469 422.265625 483.171875 C 425.441406 485.230469 429.5 486.261719 434.433594 486.261719 C 439.578125 486.261719 443.722656 485.207031 446.867188 483.089844 C 448.464844 482 449.847656 480.683594 451.019531 479.144531 C 452.195312 477.601562 453.09375 475.917969 453.722656 474.089844 C 455.152344 470.207031 455.863281 465.625 455.863281 460.371094 L 455.863281 410.636719 L 473.527344 410.636719 L 473.527344 461.394531 C 473.527344 475.34375 470.125 485.601562 463.324219 492.167969 C 456.523438 498.730469 446.835938 502.019531 434.253906 502.03125 " fill-opacity="1" fill-rule="nonzero"/><path fill="#f4dfb9" d="M 171.539062 502.015625 C 162.050781 502.015625 154.109375 500.070312 147.710938 496.183594 C 144.535156 494.273438 141.714844 491.9375 139.246094 489.175781 C 136.773438 486.414062 134.765625 483.347656 133.21875 479.984375 C 129.960938 473.0625 128.332031 465.085938 128.328125 456.058594 C 128.328125 446.917969 130.007812 438.863281 133.371094 431.886719 C 134.976562 428.484375 137.035156 425.382812 139.546875 422.582031 C 142.058594 419.777344 144.914062 417.394531 148.121094 415.421875 C 154.570312 411.421875 162.367188 409.421875 171.519531 409.421875 C 178.496094 409.421875 184.554688 410.710938 189.695312 413.28125 C 194.75 415.757812 199.007812 419.214844 202.46875 423.652344 C 205.859375 428.015625 208.34375 432.847656 209.925781 438.144531 C 210.730469 440.808594 211.300781 445.332031 211.644531 449.90625 C 211.703125 450.671875 211.679688 451.433594 211.578125 452.195312 C 211.480469 452.957031 211.304688 453.699219 211.050781 454.425781 C 210.796875 455.148438 210.472656 455.839844 210.074219 456.496094 C 209.679688 457.15625 209.21875 457.765625 208.695312 458.328125 C 208.175781 458.890625 207.601562 459.394531 206.976562 459.839844 C 206.347656 460.28125 205.683594 460.65625 204.980469 460.964844 C 204.277344 461.273438 203.546875 461.503906 202.796875 461.660156 C 202.046875 461.816406 201.285156 461.894531 200.519531 461.894531 L 146.164062 461.894531 C 146.457031 466.316406 147.628906 470.488281 149.683594 474.414062 C 150.652344 476.273438 151.859375 477.964844 153.296875 479.492188 C 154.734375 481.019531 156.351562 482.324219 158.148438 483.40625 C 161.808594 485.644531 166.324219 486.765625 171.691406 486.765625 C 174.628906 486.773438 177.515625 486.398438 180.351562 485.644531 C 183.101562 484.933594 185.617188 483.734375 187.898438 482.042969 C 189.058594 481.191406 190.050781 480.179688 190.882812 479.007812 C 191.640625 477.941406 192.597656 477.105469 193.761719 476.507812 C 194.925781 475.910156 196.164062 475.613281 197.472656 475.617188 C 204.449219 475.617188 208.320312 483.832031 203.8125 489.164062 C 203.390625 489.664062 202.949219 490.148438 202.492188 490.621094 C 198.570312 494.648438 193.941406 497.535156 188.605469 499.28125 C 183.066406 501.132812 177.378906 502.046875 171.539062 502.027344 M 146.511719 447.839844 L 194.519531 447.839844 C 194.480469 443.613281 193.449219 439.640625 191.433594 435.925781 C 190.488281 434.210938 189.328125 432.652344 187.957031 431.253906 C 186.585938 429.855469 185.050781 428.667969 183.355469 427.691406 C 179.921875 425.691406 175.816406 424.6875 171.03125 424.683594 C 165.769531 424.683594 161.398438 425.769531 157.921875 427.941406 C 154.472656 430.039062 151.785156 432.859375 149.855469 436.40625 C 147.929688 439.96875 146.808594 443.773438 146.496094 447.8125 " fill-opacity="1" fill-rule="nonzero"/><g clip-path="url(#355ec154e7)"><path fill="#f4dfb9" d="M 610.332031 410.636719 C 623.03125 410.636719 632.71875 413.980469 639.394531 420.664062 C 646.074219 427.351562 649.414062 437.554688 649.421875 451.277344 L 649.421875 502.03125 L 631.761719 502.03125 L 631.761719 452.292969 C 631.761719 446.90625 630.988281 442.277344 629.445312 438.40625 C 628.769531 436.578125 627.820312 434.898438 626.605469 433.375 C 625.386719 431.847656 623.964844 430.550781 622.332031 429.484375 C 619.132812 427.425781 615.074219 426.398438 610.160156 426.402344 C 605.011719 426.402344 600.871094 427.449219 597.730469 429.574219 C 596.128906 430.664062 594.746094 431.976562 593.574219 433.515625 C 592.398438 435.054688 591.5 436.738281 590.871094 438.570312 C 589.4375 442.449219 588.722656 447.023438 588.726562 452.292969 L 588.726562 502.015625 L 571.058594 502.015625 L 571.058594 451.261719 C 571.058594 437.3125 574.460938 427.054688 581.261719 420.484375 C 588.058594 413.917969 597.75 410.632812 610.332031 410.636719 " fill-opacity="1" fill-rule="nonzero"/></g><path fill="#f4dfb9" d="M 519.148438 502.015625 C 528.636719 502.015625 536.582031 500.070312 542.976562 496.183594 C 546.152344 494.273438 548.972656 491.9375 551.445312 489.175781 C 553.914062 486.414062 555.921875 483.347656 557.46875 479.984375 C 560.722656 473.058594 562.351562 465.082031 562.359375 456.058594 C 562.359375 446.917969 560.679688 438.863281 557.316406 431.886719 C 555.710938 428.484375 553.652344 425.382812 551.144531 422.582031 C 548.632812 419.78125 545.777344 417.394531 542.574219 415.421875 C 536.121094 411.414062 528.320312 409.414062 519.167969 409.417969 C 512.195312 409.417969 506.132812 410.703125 500.992188 413.277344 C 495.9375 415.753906 491.679688 419.210938 488.21875 423.652344 C 484.828125 428.015625 482.34375 432.84375 480.765625 438.136719 C 479.957031 440.804688 479.386719 445.328125 479.042969 449.902344 C 478.988281 450.667969 479.007812 451.429688 479.109375 452.191406 C 479.207031 452.953125 479.386719 453.695312 479.640625 454.417969 C 479.890625 455.144531 480.21875 455.835938 480.613281 456.492188 C 481.007812 457.148438 481.46875 457.761719 481.992188 458.324219 C 482.511719 458.886719 483.085938 459.386719 483.714844 459.832031 C 484.339844 460.277344 485.003906 460.652344 485.707031 460.960938 C 486.410156 461.265625 487.140625 461.496094 487.890625 461.65625 C 488.640625 461.8125 489.402344 461.890625 490.167969 461.890625 L 544.546875 461.890625 C 544.253906 466.308594 543.082031 470.480469 541.027344 474.402344 C 540.054688 476.265625 538.847656 477.960938 537.40625 479.492188 C 535.964844 481.019531 534.34375 482.324219 532.542969 483.40625 C 528.886719 485.644531 524.371094 486.765625 518.996094 486.765625 C 516.058594 486.773438 513.171875 486.402344 510.335938 485.644531 C 507.585938 484.9375 505.074219 483.738281 502.789062 482.050781 C 501.632812 481.195312 500.636719 480.179688 499.804688 479.007812 C 499.046875 477.941406 498.089844 477.105469 496.925781 476.507812 C 495.761719 475.910156 494.523438 475.613281 493.21875 475.617188 C 486.242188 475.617188 482.371094 483.832031 486.875 489.160156 C 487.296875 489.664062 487.738281 490.148438 488.199219 490.621094 C 492.121094 494.640625 496.753906 497.523438 502.09375 499.269531 C 507.632812 501.117188 513.320312 502.035156 519.160156 502.015625 M 544.1875 447.828125 L 496.179688 447.828125 C 496.21875 443.601562 497.25 439.628906 499.265625 435.914062 C 501.191406 432.425781 503.875 429.6875 507.320312 427.691406 C 510.757812 425.683594 514.875 424.683594 519.675781 424.683594 C 524.933594 424.683594 529.300781 425.765625 532.78125 427.9375 C 536.222656 430.039062 538.90625 432.863281 540.832031 436.40625 C 542.761719 439.96875 543.878906 443.773438 544.191406 447.8125 " fill-opacity="1" fill-rule="nonzero"/><g clip-path="url(#1a293a5d6e)"><path fill="#f4dfb9" d="M 52.957031 392.898438 L 52.957031 362.777344 L 64.859375 362.777344 C 65.613281 362.777344 66.359375 362.832031 67.101562 362.945312 C 71.976562 363.695312 74.550781 367.480469 74.550781 372.273438 C 74.550781 377.0625 71.957031 380.847656 67.101562 381.597656 C 66.359375 381.710938 65.613281 381.769531 64.859375 381.765625 L 56.683594 381.765625 L 56.683594 392.898438 Z M 56.683594 378.230469 L 64.730469 378.230469 C 65.367188 378.238281 65.992188 378.175781 66.613281 378.046875 C 69.503906 377.398438 70.714844 374.78125 70.714844 372.273438 C 70.714844 369.761719 69.503906 367.144531 66.613281 366.503906 C 65.992188 366.367188 65.367188 366.304688 64.730469 366.3125 L 56.683594 366.3125 Z M 56.683594 378.230469 " fill-opacity="1" fill-rule="nonzero"/></g><path fill="#f4dfb9" d="M 78.691406 392.898438 L 78.691406 370.304688 L 82.019531 370.304688 L 82.019531 373.886719 C 82.503906 373.015625 83.148438 372.285156 83.945312 371.6875 C 84.867188 371.011719 85.890625 370.550781 87.007812 370.3125 C 88.125 370.070312 89.246094 370.066406 90.367188 370.304688 L 90.367188 373.800781 C 89.484375 373.558594 88.589844 373.511719 87.6875 373.664062 C 86.785156 373.8125 85.957031 374.144531 85.199219 374.65625 C 83.003906 376.226562 82.460938 378.882812 82.460938 381.558594 L 82.460938 392.898438 Z M 78.691406 392.898438 " fill-opacity="1" fill-rule="nonzero"/><path fill="#f4dfb9" d="M 92.640625 381.582031 C 92.640625 374.488281 96.886719 369.679688 103.511719 369.679688 C 110.289062 369.679688 114.414062 374.597656 114.414062 381.582031 C 114.414062 388.667969 110.230469 393.519531 103.511719 393.519531 C 96.796875 393.519531 92.640625 388.585938 92.640625 381.582031 Z M 110.457031 381.582031 C 110.457031 376.496094 108.132812 373.210938 103.511719 373.210938 C 98.789062 373.210938 96.589844 376.640625 96.589844 381.582031 C 96.589844 386.683594 98.953125 389.984375 103.511719 389.984375 C 108.179688 389.988281 110.460938 386.550781 110.460938 381.582031 Z M 110.457031 381.582031 " fill-opacity="1" fill-rule="nonzero"/><path fill="#f4dfb9" d="M 124.273438 392.898438 L 116.078125 370.304688 L 119.84375 370.304688 L 126.175781 388.148438 L 132.492188 370.304688 L 136.300781 370.304688 L 128.082031 392.898438 Z M 124.273438 392.898438 " fill-opacity="1" fill-rule="nonzero"/><g clip-path="url(#b07af533e2)"><path fill="#f4dfb9" d="M 140.449219 366.3125 L 140.449219 362.464844 L 144.175781 362.464844 L 144.175781 366.3125 Z M 140.449219 392.898438 L 140.449219 370.304688 L 144.175781 370.304688 L 144.175781 392.898438 Z M 140.449219 392.898438 " fill-opacity="1" fill-rule="nonzero"/></g><path fill="#f4dfb9" d="M 150.425781 392.898438 L 150.425781 370.304688 L 153.789062 370.304688 L 153.789062 373.210938 C 155.46875 370.972656 158.058594 369.722656 161.316406 369.722656 C 168.601562 369.722656 170.3125 376.121094 170.3125 380.40625 L 170.3125 392.898438 L 166.550781 392.898438 L 166.550781 381.582031 C 166.550781 377.335938 165.195312 373.257812 160.425781 373.257812 C 156.679688 373.257812 154.214844 375.765625 154.214844 380.992188 L 154.214844 392.898438 Z M 150.425781 392.898438 " fill-opacity="1" fill-rule="nonzero"/><path fill="#f4dfb9" d="M 174.257812 381.597656 C 174.320312 374.550781 178.273438 369.679688 185.074219 369.679688 C 189.820312 369.679688 193.476562 372.1875 194.691406 376.242188 L 191.011719 377.363281 C 190.800781 376.746094 190.496094 376.175781 190.101562 375.652344 C 189.707031 375.132812 189.238281 374.683594 188.703125 374.3125 C 188.164062 373.9375 187.582031 373.65625 186.957031 373.46875 C 186.328125 373.28125 185.6875 373.195312 185.035156 373.210938 C 180.390625 373.210938 178.257812 376.707031 178.21875 381.617188 C 178.257812 386.65625 180.539062 390.019531 185.035156 390.019531 C 187.964844 390.019531 189.910156 388.632812 190.933594 386.0625 L 194.699219 387.042969 C 193.109375 391.265625 189.703125 393.546875 185.035156 393.546875 C 178.152344 393.519531 174.320312 388.523438 174.257812 381.597656 Z M 174.257812 381.597656 " fill-opacity="1" fill-rule="nonzero"/><g clip-path="url(#8ff96eb9f3)"><path fill="#f4dfb9" d="M 198.757812 366.3125 L 198.757812 362.464844 L 202.484375 362.464844 L 202.484375 366.3125 Z M 198.757812 392.898438 L 198.757812 370.304688 L 202.484375 370.304688 L 202.484375 392.898438 Z M 198.757812 392.898438 " fill-opacity="1" fill-rule="nonzero"/></g><path fill="#f4dfb9" d="M 207.5 386.785156 C 207.5 383.234375 209.609375 381.183594 213.042969 380.160156 C 215.84375 379.402344 219.839844 378.921875 223.183594 378.480469 C 223.082031 374.882812 221.535156 373.167969 217.621094 373.167969 C 214.882812 373.167969 212.6875 374.359375 211.875 377.121094 L 208.339844 376.054688 C 209.402344 372.097656 212.5625 369.695312 217.664062 369.695312 C 221.742188 369.695312 224.820312 371.164062 226.113281 374.109375 C 226.742188 375.507812 226.847656 377.164062 226.847656 378.9375 L 226.847656 392.941406 L 223.542969 392.941406 L 223.542969 389.378906 C 221.742188 392.140625 218.941406 393.519531 215.171875 393.519531 C 210.113281 393.519531 207.5 390.425781 207.5 386.785156 Z M 222.769531 385.195312 C 223.035156 384.027344 223.160156 382.84375 223.144531 381.644531 C 219.960938 382.058594 216.910156 382.417969 214.742188 383.042969 C 212.882812 383.605469 211.230469 384.65625 211.230469 386.769531 C 211.230469 388.628906 212.546875 390.40625 215.765625 390.40625 C 219.765625 390.40625 222.226562 388 222.769531 385.195312 Z M 222.769531 385.195312 " fill-opacity="1" fill-rule="nonzero"/><g clip-path="url(#c81a7e061e)"><path fill="#f4dfb9" d="M 239.371094 381.582031 C 239.371094 374.804688 243.199219 369.679688 249.457031 369.679688 C 250.714844 369.625 251.929688 369.835938 253.101562 370.300781 C 254.273438 370.765625 255.296875 371.453125 256.179688 372.355469 L 256.179688 362.777344 L 259.917969 362.777344 L 259.917969 392.898438 L 256.597656 392.898438 L 256.597656 390.34375 C 255.726562 391.390625 254.671875 392.191406 253.429688 392.75 C 252.191406 393.308594 250.890625 393.5625 249.527344 393.519531 C 243.1875 393.519531 239.371094 388.355469 239.371094 381.582031 Z M 256.5625 381.582031 C 256.574219 376.578125 254.496094 373.105469 250.070312 373.105469 C 245.46875 373.105469 243.351562 376.824219 243.351562 381.597656 C 243.351562 386.371094 245.535156 390.113281 249.964844 390.113281 C 254.523438 390.113281 256.574219 386.550781 256.574219 381.582031 Z M 256.5625 381.582031 " fill-opacity="1" fill-rule="nonzero"/></g><path fill="#f4dfb9" d="M 264.492188 381.746094 C 264.492188 374.34375 268.796875 369.679688 275.371094 369.679688 C 282.164062 369.679688 286.140625 374.613281 285.804688 382.644531 L 268.5 382.644531 C 268.796875 387.328125 271.222656 389.988281 275.386719 389.988281 C 276.0625 390.015625 276.726562 389.941406 277.382812 389.769531 C 278.035156 389.59375 278.652344 389.332031 279.226562 388.972656 C 279.804688 388.617188 280.3125 388.1875 280.761719 387.675781 C 281.207031 387.167969 281.570312 386.605469 281.851562 385.992188 L 285.429688 387.222656 C 285.011719 388.179688 284.460938 389.050781 283.78125 389.84375 C 283.101562 390.632812 282.320312 391.308594 281.441406 391.867188 C 280.558594 392.425781 279.617188 392.84375 278.609375 393.121094 C 277.605469 393.398438 276.582031 393.523438 275.539062 393.496094 C 268.867188 393.519531 264.492188 388.792969 264.492188 381.746094 Z M 268.550781 379.65625 L 281.945312 379.65625 C 281.488281 375.222656 279.328125 373.023438 275.503906 373.023438 C 271.453125 373.023438 269.09375 375.347656 268.550781 379.65625 Z M 268.550781 379.65625 " fill-opacity="1" fill-rule="nonzero"/><g clip-path="url(#002f673cfe)"><path fill="#f4dfb9" d="M 290.859375 362.777344 L 294.578125 362.777344 L 294.578125 392.898438 L 290.859375 392.898438 Z M 290.859375 362.777344 " fill-opacity="1" fill-rule="nonzero"/></g><path fill="#f4dfb9" d="M 1040.273438 365.757812 C 1040.273438 352.867188 1047.578125 344.722656 1058.894531 344.722656 C 1067.9375 344.722656 1073.46875 349.242188 1075.574219 356.515625 L 1070.519531 357.558594 C 1068.808594 352.667969 1064.898438 349.523438 1059.148438 349.496094 C 1050.101562 349.441406 1045.640625 356.070312 1045.582031 365.757812 C 1045.523438 375.445312 1050.101562 381.988281 1059.148438 382.042969 C 1066.953125 382.101562 1070.996094 377.355469 1071.613281 369.292969 L 1063 369.292969 L 1063 365.167969 L 1076.875 365.167969 C 1076.960938 365.957031 1076.984375 367.214844 1076.984375 367.550781 C 1076.984375 378.644531 1070.699219 386.820312 1058.875 386.820312 C 1047.722656 386.820312 1040.273438 378.785156 1040.273438 365.757812 Z M 1040.273438 365.757812 " fill-opacity="1" fill-rule="nonzero"/><path fill="#f4dfb9" d="M 1079.792969 370.804688 C 1079.792969 361.269531 1085.515625 354.832031 1094.414062 354.832031 C 1103.511719 354.832031 1109.035156 361.429688 1109.035156 370.804688 C 1109.035156 380.339844 1103.417969 386.84375 1094.414062 386.84375 C 1085.414062 386.84375 1079.792969 380.1875 1079.792969 370.804688 Z M 1103.722656 370.804688 C 1103.722656 363.984375 1100.601562 359.574219 1094.394531 359.574219 C 1088.039062 359.574219 1085.101562 364.183594 1085.101562 370.804688 C 1085.101562 377.660156 1088.28125 382.097656 1094.394531 382.097656 C 1100.664062 382.070312 1103.722656 377.46875 1103.722656 370.804688 Z M 1103.722656 370.804688 " fill-opacity="1" fill-rule="nonzero"/><path fill="#f4dfb9" d="M 1114.050781 385.972656 L 1114.050781 345.539062 L 1119.097656 345.539062 L 1119.097656 358.398438 C 1121.261719 356.121094 1124.265625 354.804688 1128.054688 354.804688 C 1136.476562 354.804688 1141.621094 361.683594 1141.621094 370.78125 C 1141.621094 379.878906 1136.535156 386.820312 1128.03125 386.820312 C 1127.128906 386.847656 1126.234375 386.773438 1125.351562 386.597656 C 1124.464844 386.425781 1123.613281 386.152344 1122.789062 385.78125 C 1121.96875 385.410156 1121.199219 384.953125 1120.480469 384.40625 C 1119.761719 383.859375 1119.117188 383.242188 1118.539062 382.546875 L 1118.539062 385.972656 Z M 1136.300781 370.78125 C 1136.300781 364.378906 1133.433594 359.382812 1127.261719 359.382812 C 1121.328125 359.382812 1118.527344 364.074219 1118.527344 370.78125 C 1118.527344 377.488281 1121.277344 382.222656 1127.425781 382.222656 C 1133.375 382.25 1136.292969 377.238281 1136.292969 370.804688 Z M 1136.300781 370.78125 " fill-opacity="1" fill-rule="nonzero"/><path fill="#f4dfb9" d="M 1147.214844 350.285156 L 1147.214844 345.117188 L 1152.21875 345.117188 L 1152.21875 350.285156 Z M 1147.214844 385.972656 L 1147.214844 355.644531 L 1152.21875 355.644531 L 1152.21875 385.972656 Z M 1147.214844 385.972656 " fill-opacity="1" fill-rule="nonzero"/><path fill="#f4dfb9" d="M 1157.832031 371.007812 C 1157.832031 361.066406 1163.617188 354.804688 1172.453125 354.804688 C 1181.582031 354.804688 1186.914062 361.429688 1186.4375 372.21875 L 1163.195312 372.21875 C 1163.589844 378.503906 1166.84375 382.070312 1172.433594 382.070312 C 1176.417969 382.070312 1179.457031 380.164062 1181.140625 376.738281 L 1185.941406 378.394531 C 1183.558594 383.753906 1178.527344 386.820312 1172.65625 386.820312 C 1163.699219 386.820312 1157.832031 380.5 1157.832031 371.007812 Z M 1163.277344 368.199219 L 1181.25 368.199219 C 1180.613281 362.25 1177.742188 359.300781 1172.605469 359.300781 C 1167.183594 359.300781 1164.011719 362.441406 1163.277344 368.199219 Z M 1163.277344 368.199219 " fill-opacity="1" fill-rule="nonzero"/><path fill="#f4dfb9" d="M 1191.566406 385.972656 L 1191.566406 355.644531 L 1196.015625 355.644531 L 1196.015625 360.449219 C 1196.667969 359.285156 1197.527344 358.300781 1198.597656 357.5 C 1200.929688 355.59375 1204.496094 355.058594 1207.191406 355.644531 L 1207.191406 360.335938 C 1206.007812 360.011719 1204.808594 359.949219 1203.597656 360.152344 C 1202.386719 360.351562 1201.273438 360.796875 1200.257812 361.488281 C 1197.308594 363.597656 1196.574219 367.164062 1196.574219 370.753906 L 1196.574219 385.972656 Z M 1191.566406 385.972656 " fill-opacity="1" fill-rule="nonzero"/><path fill="#f4dfb9" d="M 1211.382812 385.972656 L 1211.382812 355.644531 L 1215.875 355.644531 L 1215.875 359.546875 C 1218.121094 356.546875 1221.597656 354.863281 1225.984375 354.863281 C 1235.757812 354.863281 1238.0625 363.449219 1238.0625 369.210938 L 1238.0625 385.972656 L 1233.007812 385.972656 L 1233.007812 370.804688 C 1233.007812 365.085938 1231.183594 359.628906 1224.742188 359.628906 C 1219.722656 359.628906 1216.402344 363 1216.402344 370.023438 L 1216.402344 386 Z M 1211.382812 385.972656 " fill-opacity="1" fill-rule="nonzero"/><path fill="#f4dfb9" d="M 1242.269531 370.804688 C 1242.269531 361.269531 1247.988281 354.832031 1256.890625 354.832031 C 1265.992188 354.832031 1271.511719 361.429688 1271.511719 370.804688 C 1271.511719 380.339844 1265.890625 386.84375 1256.890625 386.84375 C 1247.886719 386.84375 1242.269531 380.1875 1242.269531 370.804688 Z M 1266.195312 370.804688 C 1266.195312 363.984375 1263.082031 359.574219 1256.871094 359.574219 C 1250.515625 359.574219 1247.578125 364.183594 1247.578125 370.804688 C 1247.578125 377.660156 1250.753906 382.097656 1256.871094 382.097656 C 1263.136719 382.070312 1266.195312 377.46875 1266.195312 370.804688 Z M 1266.195312 370.804688 " fill-opacity="1" fill-rule="nonzero"/><path fill="#f4dfb9" d="M 1040.820312 428.753906 C 1040.820312 419.660156 1045.957031 412.78125 1054.378906 412.78125 C 1058.195312 412.78125 1061.175781 414.097656 1063.34375 416.371094 L 1063.34375 403.511719 L 1068.363281 403.511719 L 1068.363281 443.949219 L 1063.914062 443.949219 L 1063.914062 440.523438 C 1063.339844 441.214844 1062.691406 441.835938 1061.972656 442.382812 C 1061.257812 442.925781 1060.484375 443.386719 1059.664062 443.757812 C 1058.839844 444.125 1057.988281 444.398438 1057.101562 444.574219 C 1056.21875 444.75 1055.324219 444.820312 1054.425781 444.792969 C 1045.929688 444.792969 1040.820312 437.859375 1040.820312 428.753906 Z M 1063.902344 428.753906 C 1063.902344 422.046875 1061.09375 417.355469 1055.167969 417.355469 C 1048.988281 417.355469 1046.128906 422.355469 1046.128906 428.753906 C 1046.128906 435.15625 1049.046875 440.199219 1055.027344 440.199219 C 1061.148438 440.214844 1063.902344 435.410156 1063.902344 428.753906 Z M 1063.902344 428.753906 " fill-opacity="1" fill-rule="nonzero"/><path fill="#f4dfb9" d="M 1073.417969 428.984375 C 1073.417969 419.042969 1079.203125 412.78125 1088.039062 412.78125 C 1097.167969 412.78125 1102.5 419.402344 1102.023438 430.191406 L 1078.785156 430.191406 C 1079.175781 436.480469 1082.433594 440.042969 1088.019531 440.042969 C 1092.011719 440.042969 1095.011719 438.136719 1096.730469 434.710938 L 1101.527344 436.371094 C 1099.144531 441.730469 1094.117188 444.792969 1088.25 444.792969 C 1079.292969 444.792969 1073.417969 438.476562 1073.417969 428.984375 Z M 1078.867188 426.175781 L 1096.851562 426.175781 C 1096.214844 420.222656 1093.335938 417.273438 1088.199219 417.273438 C 1082.769531 417.273438 1079.597656 420.390625 1078.867188 426.175781 Z M 1078.867188 426.175781 " fill-opacity="1" fill-rule="nonzero"/><path fill="#f4dfb9" d="M 1117.828125 403.511719 L 1122.832031 403.511719 L 1122.832031 443.949219 L 1117.828125 443.949219 Z M 1117.828125 403.511719 " fill-opacity="1" fill-rule="nonzero"/><path fill="#f4dfb9" d="M 1128.429688 435.746094 C 1128.429688 430.972656 1131.265625 428.195312 1135.875 426.847656 C 1139.6875 425.835938 1144.996094 425.1875 1149.492188 424.570312 C 1149.351562 419.742188 1147.273438 417.441406 1142.019531 417.441406 C 1138.339844 417.441406 1135.398438 419.042969 1134.296875 422.746094 L 1129.554688 421.316406 C 1130.984375 416.007812 1135.226562 412.78125 1142.078125 412.78125 C 1147.550781 412.78125 1151.683594 414.746094 1153.425781 418.703125 C 1154.265625 420.613281 1154.40625 422.804688 1154.40625 425.1875 L 1154.40625 443.949219 L 1149.953125 443.949219 L 1149.953125 439.230469 C 1147.539062 442.9375 1143.777344 444.792969 1138.722656 444.792969 C 1131.941406 444.792969 1128.429688 440.636719 1128.429688 435.746094 Z M 1148.929688 433.617188 C 1149.289062 432.046875 1149.457031 430.457031 1149.433594 428.84375 C 1145.167969 429.402344 1141.066406 429.878906 1138.117188 430.75 C 1135.621094 431.53125 1133.402344 432.914062 1133.402344 435.746094 C 1133.402344 438.246094 1135.167969 440.636719 1139.496094 440.636719 C 1144.886719 440.609375 1148.199219 437.382812 1148.929688 433.617188 Z M 1148.929688 433.617188 " fill-opacity="1" fill-rule="nonzero"/><path fill="#f4dfb9" d="M 1170.691406 443.949219 L 1170.691406 403.511719 L 1186.671875 403.511719 C 1187.667969 403.511719 1188.660156 403.585938 1189.648438 403.734375 C 1196.195312 404.746094 1199.644531 409.832031 1199.644531 416.265625 C 1199.644531 422.695312 1196.164062 427.777344 1189.648438 428.785156 C 1188.660156 428.933594 1187.667969 429.007812 1186.671875 429.007812 L 1175.675781 429.007812 L 1175.675781 443.949219 Z M 1175.695312 424.242188 L 1186.5 424.242188 C 1187.355469 424.25 1188.203125 424.164062 1189.042969 423.988281 C 1192.921875 423.117188 1194.546875 419.609375 1194.546875 416.238281 C 1194.546875 412.871094 1192.921875 409.355469 1189.042969 408.484375 C 1188.203125 408.308594 1187.355469 408.226562 1186.5 408.234375 L 1175.675781 408.234375 Z M 1175.695312 424.242188 " fill-opacity="1" fill-rule="nonzero"/><path fill="#f4dfb9" d="M 1204.140625 443.949219 L 1204.140625 413.621094 L 1208.589844 413.621094 L 1208.589844 418.425781 C 1209.242188 417.257812 1210.101562 416.273438 1211.171875 415.476562 C 1213.503906 413.570312 1217.070312 413.035156 1219.765625 413.621094 L 1219.765625 418.3125 C 1218.582031 417.988281 1217.382812 417.925781 1216.171875 418.125 C 1214.960938 418.328125 1213.847656 418.773438 1212.832031 419.460938 C 1209.882812 421.570312 1209.148438 425.136719 1209.148438 428.730469 L 1209.148438 443.949219 Z M 1204.140625 443.949219 " fill-opacity="1" fill-rule="nonzero"/><path fill="#f4dfb9" d="M 1221.742188 428.753906 C 1221.742188 419.21875 1227.464844 412.78125 1236.363281 412.78125 C 1245.464844 412.78125 1250.984375 419.378906 1250.984375 428.753906 C 1250.984375 438.289062 1245.363281 444.792969 1236.363281 444.792969 C 1227.363281 444.792969 1221.742188 438.1875 1221.742188 428.753906 Z M 1245.667969 428.753906 C 1245.667969 421.933594 1242.554688 417.523438 1236.34375 417.523438 C 1229.988281 417.523438 1227.050781 422.132812 1227.050781 428.753906 C 1227.050781 435.609375 1230.230469 440.042969 1236.34375 440.042969 C 1242.613281 440.042969 1245.667969 435.441406 1245.667969 428.753906 Z M 1245.667969 428.753906 " fill-opacity="1" fill-rule="nonzero"/><path fill="#f4dfb9" d="M 1263.105469 443.949219 L 1252.101562 413.621094 L 1257.15625 413.621094 L 1265.664062 437.554688 L 1274.140625 413.59375 L 1279.226562 413.59375 L 1268.21875 443.921875 Z M 1263.105469 443.949219 " fill-opacity="1" fill-rule="nonzero"/><path fill="#f4dfb9" d="M 1283.742188 408.261719 L 1283.742188 403.09375 L 1288.738281 403.09375 L 1288.738281 408.261719 Z M 1283.742188 443.949219 L 1283.742188 413.621094 L 1288.738281 413.621094 L 1288.738281 443.949219 Z M 1283.742188 443.949219 " fill-opacity="1" fill-rule="nonzero"/><path fill="#f4dfb9" d="M 1295.992188 443.949219 L 1295.992188 413.621094 L 1300.484375 413.621094 L 1300.484375 417.523438 C 1302.730469 414.523438 1306.207031 412.835938 1310.59375 412.835938 C 1320.363281 412.835938 1322.671875 421.425781 1322.671875 427.183594 L 1322.671875 443.949219 L 1317.585938 443.949219 L 1317.585938 428.753906 C 1317.585938 423.035156 1315.753906 417.578125 1309.351562 417.578125 C 1304.324219 417.578125 1301.011719 420.949219 1301.011719 427.972656 L 1301.011719 443.949219 Z M 1295.992188 443.949219 " fill-opacity="1" fill-rule="nonzero"/><path fill="#f4dfb9" d="M 1326.878906 428.785156 C 1326.96875 419.320312 1332.269531 412.761719 1341.398438 412.761719 C 1347.753906 412.761719 1352.714844 416.128906 1354.316406 421.578125 L 1349.375 423.066406 C 1349.089844 422.234375 1348.679688 421.46875 1348.148438 420.769531 C 1347.617188 420.070312 1346.992188 419.46875 1346.269531 418.96875 C 1345.546875 418.46875 1344.761719 418.09375 1343.921875 417.84375 C 1343.078125 417.59375 1342.21875 417.480469 1341.339844 417.503906 C 1335.109375 417.503906 1332.242188 422.195312 1332.1875 428.769531 C 1332.242188 435.539062 1335.308594 440.027344 1341.339844 440.027344 C 1345.277344 440.027344 1347.886719 438.175781 1349.261719 434.71875 L 1354.316406 436.039062 C 1352.183594 441.710938 1347.601562 444.773438 1341.339844 444.773438 C 1332.105469 444.792969 1326.96875 438.082031 1326.878906 428.785156 Z M 1326.878906 428.785156 " fill-opacity="1" fill-rule="nonzero"/><path fill="#f4dfb9" d="M 1358.667969 408.261719 L 1358.667969 403.09375 L 1363.664062 403.09375 L 1363.664062 408.261719 Z M 1358.667969 443.949219 L 1358.667969 413.621094 L 1363.664062 413.621094 L 1363.664062 443.949219 Z M 1358.667969 443.949219 " fill-opacity="1" fill-rule="nonzero"/><g clip-path="url(#917a246b57)"><path fill="#f4dfb9" d="M 1369.285156 435.746094 C 1369.285156 430.972656 1372.121094 428.195312 1376.722656 426.847656 C 1380.535156 425.835938 1385.851562 425.1875 1390.34375 424.570312 C 1390.207031 419.742188 1388.128906 417.441406 1382.875 417.441406 C 1379.195312 417.441406 1376.246094 419.042969 1375.152344 422.746094 L 1370.402344 421.316406 C 1371.839844 416.007812 1376.082031 412.78125 1382.925781 412.78125 C 1388.40625 412.78125 1392.53125 414.746094 1394.273438 418.703125 C 1395.121094 420.613281 1395.257812 422.804688 1395.257812 425.1875 L 1395.257812 443.949219 L 1390.808594 443.949219 L 1390.808594 439.230469 C 1388.394531 442.9375 1384.628906 444.792969 1379.578125 444.792969 C 1372.792969 444.792969 1369.285156 440.636719 1369.285156 435.746094 Z M 1389.78125 433.617188 C 1390.140625 432.046875 1390.308594 430.457031 1390.289062 428.84375 C 1386.015625 429.402344 1381.921875 429.878906 1378.972656 430.75 C 1376.46875 431.53125 1374.25 432.914062 1374.25 435.746094 C 1374.25 438.246094 1376.023438 440.636719 1380.347656 440.636719 C 1385.738281 440.609375 1389.054688 437.382812 1389.78125 433.617188 Z M 1389.78125 433.617188 " fill-opacity="1" fill-rule="nonzero"/></g><path fill="#f4dfb9" d="M 1040.820312 486.730469 C 1040.820312 477.632812 1045.957031 470.753906 1054.378906 470.753906 C 1058.195312 470.753906 1061.175781 472.070312 1063.34375 474.347656 L 1063.34375 461.488281 L 1068.363281 461.488281 L 1068.363281 501.921875 L 1063.914062 501.921875 L 1063.914062 498.496094 C 1063.339844 499.191406 1062.691406 499.808594 1061.972656 500.355469 C 1061.257812 500.902344 1060.484375 501.359375 1059.664062 501.730469 C 1058.839844 502.101562 1057.988281 502.375 1057.101562 502.546875 C 1056.21875 502.722656 1055.324219 502.796875 1054.425781 502.769531 C 1045.929688 502.769531 1040.820312 495.832031 1040.820312 486.730469 Z M 1063.902344 486.730469 C 1063.902344 480.023438 1061.09375 475.332031 1055.167969 475.332031 C 1048.988281 475.332031 1046.128906 480.328125 1046.128906 486.730469 C 1046.128906 493.132812 1049.046875 498.171875 1055.027344 498.171875 C 1061.148438 498.191406 1063.902344 493.386719 1063.902344 486.730469 Z M 1063.902344 486.730469 " fill-opacity="1" fill-rule="nonzero"/><path fill="#f4dfb9" d="M 1073.417969 486.957031 C 1073.417969 477.015625 1079.203125 470.753906 1088.039062 470.753906 C 1097.167969 470.753906 1102.5 477.378906 1102.023438 488.167969 L 1078.785156 488.167969 C 1079.175781 494.453125 1082.433594 498.019531 1088.019531 498.019531 C 1092.011719 498.019531 1095.011719 496.113281 1096.730469 492.6875 L 1101.527344 494.34375 C 1099.144531 499.703125 1094.117188 502.769531 1088.25 502.769531 C 1079.292969 502.769531 1073.417969 496.449219 1073.417969 486.957031 Z M 1078.867188 484.148438 L 1096.851562 484.148438 C 1096.214844 478.191406 1093.335938 475.25 1088.199219 475.25 C 1082.769531 475.25 1079.597656 478.390625 1078.867188 484.148438 Z M 1078.867188 484.148438 " fill-opacity="1" fill-rule="nonzero"/><path fill="#f4dfb9" d="M 1107.707031 461.488281 L 1112.703125 461.488281 L 1112.703125 501.921875 L 1107.707031 501.921875 Z M 1107.707031 461.488281 " fill-opacity="1" fill-rule="nonzero"/><path fill="#f4dfb9" d="M 1130.113281 501.921875 L 1130.113281 461.488281 L 1135.167969 461.488281 L 1156.261719 493.078125 L 1156.261719 461.488281 L 1161.316406 461.488281 L 1161.316406 501.921875 L 1156.261719 501.921875 L 1135.167969 470.304688 L 1135.167969 501.921875 Z M 1130.113281 501.921875 " fill-opacity="1" fill-rule="nonzero"/><path fill="#f4dfb9" d="M 1166.367188 486.957031 C 1166.367188 477.015625 1172.152344 470.753906 1180.988281 470.753906 C 1190.117188 470.753906 1195.449219 477.378906 1194.972656 488.167969 L 1171.734375 488.167969 C 1172.128906 494.453125 1175.382812 498.019531 1180.96875 498.019531 C 1184.957031 498.019531 1187.960938 496.113281 1189.679688 492.6875 L 1194.476562 494.34375 C 1192.089844 499.703125 1187.066406 502.769531 1181.191406 502.769531 C 1172.234375 502.769531 1166.367188 496.449219 1166.367188 486.957031 Z M 1171.816406 484.148438 L 1189.785156 484.148438 C 1189.152344 478.191406 1186.277344 475.25 1181.140625 475.25 C 1175.71875 475.25 1172.546875 478.390625 1171.816406 484.148438 Z M 1171.816406 484.148438 " fill-opacity="1" fill-rule="nonzero"/><path fill="#f4dfb9" d="M 1199.53125 488.363281 L 1199.53125 471.59375 L 1204.617188 471.59375 L 1204.617188 486.785156 C 1204.617188 492.507812 1206.441406 497.960938 1212.847656 497.960938 C 1217.871094 497.960938 1221.191406 494.59375 1221.191406 487.574219 L 1221.191406 471.59375 L 1226.210938 471.59375 L 1226.210938 501.921875 L 1221.761719 501.921875 L 1221.761719 498.019531 C 1219.519531 501.027344 1216.039062 502.710938 1211.65625 502.710938 C 1201.832031 502.710938 1199.53125 494.128906 1199.53125 488.363281 Z M 1199.53125 488.363281 " fill-opacity="1" fill-rule="nonzero"/><path fill="#f4dfb9" d="M 1231.234375 486.730469 C 1231.234375 477.632812 1236.375 470.753906 1244.800781 470.753906 C 1248.925781 470.753906 1252.101562 472.324219 1254.335938 474.996094 L 1254.335938 471.59375 L 1258.785156 471.59375 L 1258.785156 515.40625 L 1253.757812 515.40625 L 1253.757812 499.117188 C 1252.59375 500.335938 1251.234375 501.257812 1249.679688 501.894531 C 1248.121094 502.53125 1246.503906 502.820312 1244.824219 502.769531 C 1236.34375 502.769531 1231.234375 495.832031 1231.234375 486.730469 Z M 1254.320312 486.730469 C 1254.320312 480.023438 1251.511719 475.332031 1245.585938 475.332031 C 1239.410156 475.332031 1236.542969 480.328125 1236.542969 486.730469 C 1236.542969 493.132812 1239.464844 498.171875 1245.441406 498.171875 C 1251.570312 498.191406 1254.320312 493.386719 1254.320312 486.730469 Z M 1254.320312 486.730469 " fill-opacity="1" fill-rule="nonzero"/><path fill="#f4dfb9" d="M 1264.964844 488.363281 L 1264.964844 471.59375 L 1270.015625 471.59375 L 1270.015625 486.785156 C 1270.015625 492.507812 1271.839844 497.960938 1278.242188 497.960938 C 1283.269531 497.960938 1286.582031 494.59375 1286.582031 487.574219 L 1286.582031 471.59375 L 1291.609375 471.59375 L 1291.609375 501.921875 L 1287.160156 501.921875 L 1287.160156 498.019531 C 1284.910156 501.027344 1281.441406 502.710938 1277.046875 502.710938 C 1267.265625 502.710938 1264.964844 494.128906 1264.964844 488.363281 Z M 1264.964844 488.363281 " fill-opacity="1" fill-rule="nonzero"/><path fill="#f4dfb9" d="M 1296.664062 486.957031 C 1296.664062 477.015625 1302.449219 470.753906 1311.285156 470.753906 C 1320.414062 470.753906 1325.746094 477.378906 1325.300781 488.167969 L 1302.03125 488.167969 C 1302.425781 494.453125 1305.679688 498.019531 1311.265625 498.019531 C 1315.253906 498.019531 1318.289062 496.113281 1319.976562 492.6875 L 1324.773438 494.34375 C 1322.390625 499.703125 1317.363281 502.769531 1311.496094 502.769531 C 1302.53125 502.769531 1296.664062 496.449219 1296.664062 486.957031 Z M 1302.113281 484.148438 L 1320.082031 484.148438 C 1319.449219 478.191406 1316.574219 475.25 1311.4375 475.25 C 1305.988281 475.25 1302.84375 478.390625 1302.113281 484.148438 Z M 1313.515625 457.699219 L 1317.585938 457.699219 L 1313.90625 466.960938 L 1309.835938 466.960938 Z M 1313.515625 457.699219 " fill-opacity="1" fill-rule="nonzero"/><path fill="#f4dfb9" d="M 1329.511719 501.921875 L 1329.511719 471.59375 L 1334 471.59375 L 1334 475.496094 C 1336.25 472.496094 1339.71875 470.8125 1344.113281 470.8125 C 1353.882812 470.8125 1356.191406 479.398438 1356.191406 485.160156 L 1356.191406 501.921875 L 1351.105469 501.921875 L 1351.105469 486.730469 C 1351.105469 481.007812 1349.28125 475.554688 1342.878906 475.554688 C 1337.851562 475.554688 1334.539062 478.921875 1334.539062 485.949219 L 1334.539062 501.921875 Z M 1329.511719 501.921875 " fill-opacity="1" fill-rule="nonzero"/><g clip-path="url(#5e824bbf94)"><path fill="#f4dfb9" d="M 951.75 341.171875 C 950.34375 342.589844 948.738281 343.726562 946.933594 344.578125 C 945.125 345.429688 943.230469 345.949219 941.242188 346.128906 L 890.339844 338.945312 C 887.871094 338.636719 885.390625 338.5 882.902344 338.53125 C 880.074219 338.484375 877.257812 338.632812 874.449219 338.984375 L 828.738281 345.46875 C 823.179688 342.777344 817.929688 340.710938 812.894531 343.558594 C 812.648438 343.699219 812.382812 343.738281 812.105469 343.679688 C 811.828125 343.621094 811.605469 343.476562 811.433594 343.25 C 811.265625 343.023438 811.191406 342.765625 811.214844 342.484375 C 811.238281 342.199219 811.351562 341.960938 811.554688 341.761719 C 817.957031 335.601562 824.59375 336.433594 831.019531 337.242188 C 835.699219 337.828125 840.179688 338.386719 844.535156 336.25 C 839.816406 334.742188 836.175781 330.59375 832.628906 326.542969 C 828.03125 321.285156 823.6875 316.328125 817.332031 317.089844 C 817.183594 317.125 817.035156 317.132812 816.886719 317.109375 C 816.738281 317.085938 816.597656 317.035156 816.464844 316.957031 C 816.335938 316.878906 816.226562 316.777344 816.136719 316.65625 C 816.046875 316.535156 815.984375 316.398438 815.949219 316.25 C 815.914062 316.105469 815.90625 315.953125 815.929688 315.804688 C 815.953125 315.65625 816.003906 315.515625 816.082031 315.386719 C 816.160156 315.253906 816.257812 315.144531 816.382812 315.054688 C 816.503906 314.964844 816.636719 314.902344 816.785156 314.867188 C 825.050781 311.625 830.867188 314.9375 836.492188 318.132812 C 840.59375 320.464844 844.527344 322.699219 849.363281 322.390625 C 845.550781 319.214844 843.808594 313.96875 842.078125 308.871094 C 839.835938 302.253906 837.726562 296.003906 831.558594 294.25 C 831.285156 294.171875 831.074219 294.011719 830.921875 293.773438 C 830.769531 293.535156 830.710938 293.277344 830.753906 292.996094 C 830.796875 292.714844 830.925781 292.484375 831.140625 292.300781 C 831.355469 292.117188 831.605469 292.027344 831.890625 292.03125 C 840.789062 292.195312 844.875 297.484375 848.84375 302.589844 C 851.742188 306.320312 854.519531 309.886719 859.101562 311.453125 C 856.835938 307.054688 857.195312 301.542969 857.550781 296.195312 C 858.015625 289.203125 858.449219 282.648438 853.414062 278.695312 C 853.207031 278.515625 853.082031 278.289062 853.039062 278.015625 C 852.996094 277.742188 853.046875 277.488281 853.1875 277.253906 C 853.332031 277.019531 853.535156 276.855469 853.792969 276.769531 C 854.054688 276.679688 854.316406 276.6875 854.570312 276.789062 C 862.707031 280.339844 864.476562 286.792969 866.191406 293.035156 C 867.460938 297.585938 868.644531 301.9375 872.28125 305.113281 C 871.867188 300.179688 874.308594 295.230469 876.691406 290.40625 C 879.789062 284.144531 882.707031 278.230469 879.574219 272.648438 C 879.472656 272.40625 879.457031 272.160156 879.527344 271.90625 C 879.597656 271.65625 879.738281 271.453125 879.949219 271.296875 C 880.160156 271.144531 880.398438 271.070312 880.660156 271.082031 C 880.921875 271.089844 881.152344 271.183594 881.351562 271.351562 C 887.511719 277.746094 886.679688 284.390625 885.871094 290.8125 C 885.289062 295.496094 884.726562 299.976562 886.863281 304.332031 C 888.390625 299.609375 892.539062 295.972656 896.609375 292.425781 C 901.867188 287.828125 906.824219 283.480469 906.0625 277.125 C 906.03125 276.84375 906.097656 276.585938 906.257812 276.355469 C 906.417969 276.125 906.636719 275.972656 906.910156 275.90625 C 907.183594 275.835938 907.449219 275.867188 907.699219 275.992188 C 907.949219 276.121094 908.128906 276.316406 908.234375 276.578125 C 911.476562 284.84375 908.164062 290.664062 904.96875 296.285156 C 902.636719 300.390625 900.398438 304.320312 900.710938 309.15625 C 903.886719 305.34375 909.132812 303.601562 914.230469 301.871094 C 920.828125 299.609375 927.070312 297.519531 928.800781 291.34375 C 928.878906 291.074219 929.035156 290.859375 929.273438 290.707031 C 929.511719 290.554688 929.769531 290.5 930.050781 290.539062 C 930.332031 290.582031 930.5625 290.707031 930.746094 290.921875 C 930.929688 291.136719 931.019531 291.386719 931.019531 291.667969 C 930.847656 300.570312 925.570312 304.65625 920.460938 308.625 C 916.726562 311.523438 913.164062 314.300781 911.597656 318.890625 C 915.996094 316.613281 921.507812 316.984375 926.855469 317.332031 C 933.816406 317.796875 940.402344 318.234375 944.355469 313.199219 C 944.535156 312.996094 944.761719 312.871094 945.03125 312.828125 C 945.304688 312.785156 945.554688 312.835938 945.789062 312.976562 C 946.023438 313.121094 946.1875 313.320312 946.273438 313.578125 C 946.363281 313.835938 946.359375 314.09375 946.261719 314.351562 C 942.753906 322.492188 936.300781 324.273438 930.058594 325.984375 C 925.507812 327.253906 921.160156 328.4375 917.949219 332.074219 C 922.882812 331.660156 927.832031 334.109375 932.660156 336.484375 C 938.914062 339.574219 944.820312 342.484375 950.394531 339.351562 C 950.640625 339.210938 950.902344 339.171875 951.179688 339.230469 C 951.460938 339.289062 951.683594 339.433594 951.851562 339.664062 C 952.027344 339.890625 952.105469 340.148438 952.085938 340.4375 C 952.066406 340.722656 951.953125 340.96875 951.75 341.171875 Z M 951.75 341.171875 " fill-opacity="1" fill-rule="evenodd"/></g><path fill="#f4dfb9" d="M 824.007812 430.355469 L 820.238281 431.507812 L 818.941406 435.25 L 817.789062 431.480469 L 814.046875 430.179688 L 817.820312 429.027344 L 819.117188 425.285156 L 820.269531 429.054688 Z M 824.007812 430.355469 " fill-opacity="1" fill-rule="nonzero"/><path fill="#f4dfb9" d="M 824.101562 415.324219 L 820.332031 416.46875 L 819.03125 420.210938 L 817.886719 416.433594 L 814.140625 415.140625 L 817.910156 413.988281 L 819.214844 410.242188 L 820.363281 414.019531 Z M 824.101562 415.324219 " fill-opacity="1" fill-rule="nonzero"/><path fill="#f4dfb9" d="M 827.816406 401.371094 L 824.046875 402.519531 L 822.742188 406.265625 L 821.589844 402.488281 L 817.855469 401.183594 L 821.625 400.042969 L 822.925781 396.296875 L 824.070312 400.066406 Z M 827.816406 401.371094 " fill-opacity="1" fill-rule="nonzero"/><path fill="#f4dfb9" d="M 832.976562 387.957031 L 829.207031 389.105469 L 827.910156 392.851562 L 826.761719 389.082031 L 823.023438 387.777344 L 826.785156 386.628906 L 828.089844 382.890625 L 829.238281 386.660156 Z M 832.976562 387.957031 " fill-opacity="1" fill-rule="nonzero"/><path fill="#f4dfb9" d="M 842.671875 376.996094 L 838.902344 378.148438 L 837.597656 381.886719 L 836.449219 378.117188 L 832.710938 376.820312 L 836.484375 375.667969 L 837.78125 371.925781 L 838.933594 375.695312 Z M 842.671875 376.996094 " fill-opacity="1" fill-rule="nonzero"/><path fill="#f4dfb9" d="M 853.910156 368.574219 L 850.132812 369.71875 L 848.832031 373.464844 L 847.6875 369.695312 L 843.949219 368.390625 L 847.71875 367.238281 L 849.023438 363.503906 L 850.164062 367.273438 Z M 853.910156 368.574219 " fill-opacity="1" fill-rule="nonzero"/><path fill="#f4dfb9" d="M 866.050781 362.683594 L 862.277344 363.832031 L 860.980469 367.578125 L 859.828125 363.808594 L 856.082031 362.503906 L 859.855469 361.351562 L 861.15625 357.609375 L 862.308594 361.378906 Z M 866.050781 362.683594 " fill-opacity="1" fill-rule="nonzero"/><path fill="#f4dfb9" d="M 880.546875 358.96875 L 876.769531 360.121094 L 875.472656 363.859375 L 874.320312 360.089844 L 870.582031 358.792969 L 874.355469 357.640625 L 875.65625 353.898438 L 876.800781 357.671875 Z M 880.546875 358.96875 " fill-opacity="1" fill-rule="nonzero"/><path fill="#f4dfb9" d="M 844.539062 525.582031 L 843.847656 525.277344 L 832.234375 520.425781 C 830.554688 519.777344 828.835938 519.253906 827.078125 518.855469 C 822.832031 518.285156 821.128906 519.1875 819.1875 520.269531 C 818.265625 520.777344 819.234375 521.34375 819.234375 521.34375 C 819.234375 521.34375 833.695312 527.488281 834.273438 527.597656 C 835.078125 527.859375 835.894531 528.054688 836.726562 528.1875 C 840.988281 528.691406 842.671875 527.757812 844.589844 526.652344 C 845.519531 526.136719 844.539062 525.582031 844.539062 525.582031 Z M 844.539062 525.582031 " fill-opacity="1" fill-rule="evenodd"/><path fill="#f4dfb9" d="M 817.515625 513.890625 L 816.824219 513.605469 L 805.222656 508.75 C 803.539062 508.097656 801.820312 507.570312 800.0625 507.171875 C 795.816406 506.601562 794.117188 507.511719 792.171875 508.589844 C 791.25 509.097656 792.222656 509.664062 792.222656 509.664062 C 792.222656 509.664062 806.683594 515.8125 807.261719 515.921875 C 808.066406 516.175781 808.882812 516.375 809.71875 516.511719 C 813.96875 517.011719 815.660156 516.078125 817.582031 514.972656 C 818.496094 514.472656 817.515625 513.890625 817.515625 513.890625 Z M 817.515625 513.890625 " fill-opacity="1" fill-rule="evenodd"/><g clip-path="url(#c8a3082b97)"><path fill="#f4dfb9" d="M 872.035156 536.179688 L 871.339844 535.894531 L 863.898438 532.785156 L 863.191406 532.492188 L 862.492188 532.199219 L 859.738281 531.035156 C 858.058594 530.382812 856.339844 529.859375 854.582031 529.460938 C 850.332031 528.886719 848.632812 529.796875 846.6875 530.878906 C 845.773438 531.386719 846.738281 531.953125 846.738281 531.953125 C 846.738281 531.953125 861.203125 538.097656 861.78125 538.207031 L 862.796875 538.492188 C 863.0625 538.5625 863.316406 538.625 863.558594 538.675781 C 863.800781 538.730469 864.035156 538.773438 864.234375 538.796875 L 864.304688 538.796875 C 868.511719 539.28125 870.191406 538.355469 872.097656 537.246094 C 873.011719 536.71875 872.035156 536.179688 872.035156 536.179688 Z M 872.035156 536.179688 " fill-opacity="1" fill-rule="evenodd"/></g><path fill="#f4dfb9" d="M 797.359375 501.230469 L 797.824219 501.027344 L 797.707031 500.53125 C 796.671875 496.015625 791.726562 493.539062 791.515625 493.441406 L 776.34375 486.003906 C 773.800781 484.652344 771.964844 485.746094 771.164062 487.109375 C 770.277344 488.609375 770.316406 490.863281 771.917969 491.890625 L 788.261719 500.625 C 790.4375 501.199219 792.652344 501.53125 794.898438 501.617188 C 795.746094 501.648438 796.566406 501.519531 797.359375 501.230469 Z M 797.359375 501.230469 " fill-opacity="1" fill-rule="evenodd"/><g clip-path="url(#34273071c4)"><path fill="#f4dfb9" d="M 997.390625 360.894531 C 996.683594 359.847656 995.796875 358.992188 994.722656 358.324219 C 993.648438 357.660156 992.484375 357.246094 991.230469 357.082031 L 890.335938 342.835938 C 887.863281 342.527344 885.386719 342.386719 882.898438 342.417969 C 880.410156 342.386719 877.929688 342.527344 875.460938 342.835938 L 774.558594 357.101562 C 773.9375 357.179688 773.335938 357.320312 772.746094 357.527344 C 772.160156 357.734375 771.597656 358.003906 771.070312 358.332031 C 770.539062 358.65625 770.046875 359.039062 769.597656 359.46875 C 769.148438 359.902344 768.75 360.378906 768.402344 360.894531 C 768.054688 361.414062 767.765625 361.960938 767.535156 362.539062 C 767.304688 363.121094 767.136719 363.71875 767.035156 364.332031 C 766.933594 364.949219 766.898438 365.566406 766.925781 366.191406 C 766.957031 366.8125 767.054688 367.425781 767.214844 368.027344 L 793.082031 471.148438 L 798.851562 494.160156 C 799.992188 498.707031 804.269531 503.695312 808.585938 505.488281 L 857.09375 525.832031 L 862.910156 528.273438 L 863.585938 528.5625 L 864.265625 528.84375 L 868.160156 530.476562 L 875.394531 533.542969 C 877.582031 534.390625 879.847656 534.828125 882.191406 534.855469 L 883.597656 534.855469 C 885.941406 534.828125 888.210938 534.390625 890.398438 533.542969 L 897.632812 530.503906 L 901.523438 528.867188 L 902.203125 528.589844 L 902.882812 528.296875 L 908.691406 525.855469 L 957.207031 505.515625 C 961.523438 503.703125 965.804688 498.730469 966.941406 494.1875 L 972.707031 471.175781 L 998.578125 368.054688 C 998.90625 366.832031 998.96875 365.59375 998.757812 364.347656 C 998.550781 363.097656 998.09375 361.945312 997.390625 360.894531 Z M 825.578125 504.300781 L 824.898438 503.996094 L 813.386719 498.910156 C 811.753906 498.140625 810.191406 497.253906 808.695312 496.253906 C 805.351562 493.570312 804.839844 491.707031 804.289062 489.550781 C 804.019531 488.535156 805.101562 488.847656 805.101562 488.847656 C 805.101562 488.847656 819.511719 495.113281 819.988281 495.464844 C 820.730469 495.863281 821.4375 496.316406 822.105469 496.832031 C 825.40625 499.570312 825.882812 501.4375 826.402344 503.59375 C 826.644531 504.625 825.578125 504.300781 825.578125 504.300781 Z M 852.1875 516.949219 L 851.5 516.644531 L 839.988281 511.558594 C 838.359375 510.792969 836.792969 509.90625 835.296875 508.902344 C 831.960938 506.21875 831.445312 504.355469 830.890625 502.207031 C 830.625 501.183594 831.707031 501.503906 831.707031 501.503906 C 831.707031 501.503906 846.117188 507.765625 846.59375 508.113281 C 847.332031 508.515625 848.039062 508.972656 848.710938 509.480469 C 852.003906 512.226562 852.484375 514.097656 853.007812 516.25 C 853.261719 517.28125 852.1875 516.945312 852.1875 516.945312 Z M 864.03125 504.765625 C 861.253906 502.753906 857.328125 501.089844 853.082031 499.441406 C 853.082031 499.441406 852.097656 498.984375 851.8125 498.808594 C 846.878906 496.117188 842.5625 492.703125 839.964844 487.511719 C 838.945312 485.488281 838.054688 483.40625 837.148438 481.320312 C 836.371094 479.527344 835.597656 477.742188 834.726562 476.003906 C 833.753906 474.042969 833.238281 471.96875 833.175781 469.78125 C 833.113281 467.992188 833.230469 466.214844 833.53125 464.449219 C 833.957031 461.695312 834.316406 458.929688 834.574219 456.183594 C 834.730469 454.417969 834.574219 452.625 834.660156 450.851562 C 834.71875 449.578125 835.546875 449.027344 836.683594 449.667969 C 837.515625 450.171875 838.199219 450.824219 838.734375 451.632812 C 839.914062 453.367188 840.007812 455.414062 840.070312 457.4375 C 840.109375 458.5 840.160156 459.554688 840.210938 460.617188 L 840.210938 466.503906 C 836.207031 468.148438 841.769531 476.417969 842.84375 477.863281 C 843.765625 479.222656 847.210938 483.429688 848.074219 484.117188 C 848.894531 485.011719 849.503906 485.640625 849.738281 485.898438 C 849.917969 486.070312 850.128906 486.148438 850.375 486.125 C 850.5625 486.097656 850.71875 486.011719 850.839844 485.863281 C 850.992188 485.714844 851.066406 485.53125 851.066406 485.316406 C 851.066406 485.105469 850.992188 484.921875 850.839844 484.773438 C 845.492188 479.273438 842.671875 475.238281 841.261719 472.558594 C 840.878906 471.882812 840.578125 471.171875 840.363281 470.425781 C 839.785156 468.070312 841.792969 467.042969 844.023438 468.480469 L 844.273438 468.652344 C 844.882812 469.050781 845.457031 469.496094 845.996094 469.992188 C 848.671875 472.535156 851.714844 474.675781 854.40625 477.21875 C 856.351562 479.039062 858.09375 480.644531 860.636719 481.789062 C 860.636719 481.789062 864.449219 483.0625 866.28125 483.542969 C 869.632812 484.40625 872.84375 485.632812 875.917969 487.21875 C 876.496094 487.683594 877.761719 488.738281 877.90625 488.777344 C 875.417969 491.464844 873.386719 494.460938 871.816406 497.769531 C 870.082031 501.261719 868.617188 504.867188 867.425781 508.578125 C 867.199219 508.082031 866.925781 507.621094 866.597656 507.1875 C 866.566406 507.148438 866.535156 507.101562 866.496094 507.066406 C 865.777344 506.183594 864.957031 505.414062 864.03125 504.757812 Z M 872.058594 446.839844 C 871.246094 447.273438 867.417969 448.925781 865.554688 444.660156 L 862.472656 438.660156 C 862.234375 438.238281 861.894531 437.925781 861.453125 437.726562 C 861.015625 437.523438 860.558594 437.472656 860.082031 437.566406 L 847.367188 440.65625 C 846.480469 440.863281 845.570312 440.726562 845.347656 440.332031 C 845.125 439.9375 845.539062 439.167969 846.269531 438.609375 L 879.820312 413.097656 L 879.859375 487.175781 C 879.257812 487.59375 878.695312 488.058594 878.175781 488.574219 L 878.175781 443.609375 Z M 860.902344 480.1875 C 860.800781 480.574219 856.628906 477.269531 855.066406 475.695312 C 854.925781 475.554688 854.628906 466.230469 854.5 462.21875 C 854.464844 461.226562 855.136719 460.742188 856.007812 461.277344 C 856.867188 461.742188 857.523438 462.40625 857.976562 463.273438 C 858.695312 464.996094 859.152344 466.78125 859.34375 468.636719 C 859.464844 471.589844 859.746094 474.527344 860.195312 477.449219 C 860.363281 478.378906 860.601562 479.289062 860.902344 480.183594 Z M 853.816406 474.59375 C 852.023438 472.960938 850 471.332031 848.425781 469.851562 C 848.152344 469.597656 848.195312 468.925781 848.183594 468.542969 C 848.015625 464.226562 847.894531 459.910156 847.742188 455.59375 C 847.699219 454.164062 848.378906 453.6875 849.703125 454.324219 C 850.308594 454.613281 850.820312 455.023438 851.242188 455.546875 C 851.660156 456.074219 851.945312 456.667969 852.09375 457.324219 C 852.554688 459.390625 852.875 461.480469 853.050781 463.589844 C 853.332031 467.046875 853.628906 470.894531 853.816406 474.589844 Z M 846.328125 459.058594 C 846.523438 462.121094 846.839844 465.480469 846.960938 468.726562 C 845.25 467.457031 844.246094 466.722656 841.445312 466.28125 C 841.445312 466.164062 841.0625 454.835938 840.953125 452.546875 C 840.871094 450.851562 841.804688 450.210938 843.261719 451.117188 C 844.050781 451.671875 844.6875 452.367188 845.167969 453.203125 C 846.300781 454.984375 846.191406 457.070312 846.328125 459.058594 Z M 897.601562 528.125 L 895 529.21875 C 892.316406 509.164062 889.242188 500.136719 888.371094 500.136719 C 887.867188 500.136719 889.8125 502.800781 893.410156 529.886719 L 890.367188 531.15625 C 888.191406 532.003906 885.9375 532.441406 883.601562 532.46875 C 883.652344 528.015625 883.648438 523.855469 883.640625 522.1875 C 883.640625 521.984375 883.570312 521.8125 883.425781 521.667969 C 883.28125 521.523438 883.105469 521.449219 882.902344 521.449219 C 882.699219 521.449219 882.527344 521.523438 882.382812 521.667969 C 882.238281 521.8125 882.167969 521.984375 882.167969 522.1875 C 882.167969 523.851562 882.167969 528.023438 882.199219 532.46875 C 879.863281 532.441406 877.609375 532.003906 875.433594 531.15625 L 872.390625 529.886719 C 875.988281 502.800781 877.933594 500.136719 877.429688 500.136719 C 876.558594 500.136719 873.476562 509.164062 870.800781 529.21875 L 868.195312 528.125 L 864.613281 526.625 C 864.722656 525.945312 864.835938 525.277344 864.953125 524.605469 C 865.023438 524.195312 865.105469 523.789062 865.175781 523.375 C 865.226562 523.121094 865.269531 522.863281 865.320312 522.601562 C 865.402344 522.167969 865.492188 521.742188 865.574219 521.328125 C 865.625 521.09375 865.671875 520.859375 865.714844 520.628906 C 865.804688 520.210938 865.898438 519.804688 865.988281 519.390625 C 866.039062 519.148438 866.089844 518.902344 866.148438 518.660156 L 866.414062 517.523438 C 866.476562 517.253906 866.539062 516.980469 866.609375 516.714844 C 866.679688 516.449219 866.777344 516.039062 866.863281 515.710938 C 866.953125 515.378906 867.019531 515.074219 867.101562 514.777344 L 867.328125 513.941406 C 867.429688 513.574219 867.527344 513.210938 867.628906 512.851562 C 867.691406 512.632812 867.753906 512.425781 867.8125 512.214844 L 868.195312 510.941406 C 869.480469 506.636719 871.125 502.472656 873.121094 498.445312 C 875.261719 494.210938 877.308594 491.402344 879.078125 489.671875 C 879.234375 489.507812 879.402344 489.359375 879.558594 489.214844 C 879.71875 489.070312 879.75 489.050781 879.847656 488.96875 C 880.707031 488.140625 881.722656 487.625 882.898438 487.421875 C 884.074219 487.621094 885.09375 488.136719 885.953125 488.96875 L 886.242188 489.214844 C 886.398438 489.359375 886.558594 489.507812 886.722656 489.671875 C 888.492188 491.402344 890.539062 494.210938 892.679688 498.445312 C 894.679688 502.46875 896.320312 506.636719 897.605469 510.941406 C 897.734375 511.367188 897.859375 511.800781 897.980469 512.214844 C 898.046875 512.417969 898.109375 512.628906 898.167969 512.851562 C 898.273438 513.210938 898.375 513.574219 898.472656 513.941406 C 898.566406 514.3125 898.625 514.496094 898.699219 514.777344 C 898.777344 515.054688 898.859375 515.410156 898.941406 515.710938 C 899.023438 516.007812 899.105469 516.378906 899.195312 516.714844 L 899.386719 517.523438 C 899.476562 517.902344 899.570312 518.277344 899.652344 518.660156 C 899.710938 518.902344 899.761719 519.148438 899.8125 519.390625 C 899.90625 519.804688 899.996094 520.210938 900.078125 520.628906 C 900.128906 520.859375 900.175781 521.09375 900.226562 521.328125 C 900.316406 521.753906 900.398438 522.183594 900.480469 522.601562 C 900.53125 522.863281 900.574219 523.121094 900.625 523.375 C 900.695312 523.789062 900.773438 524.195312 900.847656 524.605469 C 900.964844 525.277344 901.078125 525.945312 901.179688 526.625 Z M 920.484375 440.324219 C 920.261719 440.71875 919.355469 440.859375 918.464844 440.648438 L 905.75 437.558594 C 905.277344 437.464844 904.816406 437.519531 904.378906 437.71875 C 903.9375 437.921875 903.597656 438.230469 903.359375 438.652344 L 900.277344 444.652344 C 898.40625 448.917969 894.585938 447.265625 893.773438 446.832031 L 887.671875 443.609375 L 887.671875 488.566406 C 887.148438 488.054688 886.585938 487.585938 885.988281 487.167969 L 886.023438 413.089844 L 919.578125 438.601562 C 920.277344 439.160156 920.6875 439.9375 920.464844 440.324219 Z M 920.617188 453.203125 C 921.101562 452.371094 921.738281 451.675781 922.527344 451.117188 C 923.980469 450.210938 924.914062 450.851562 924.832031 452.546875 C 924.726562 454.855469 924.355469 466.164062 924.34375 466.28125 C 921.539062 466.722656 920.53125 467.488281 918.820312 468.726562 C 918.972656 465.480469 919.296875 462.121094 919.492188 459.058594 C 919.601562 457.070312 919.492188 454.984375 920.601562 453.203125 Z M 918.074219 455.585938 C 917.929688 459.902344 917.808594 464.21875 917.644531 468.535156 C 917.644531 468.917969 917.644531 469.589844 917.402344 469.847656 C 915.839844 471.328125 913.804688 472.953125 912.003906 474.589844 C 912.195312 470.894531 912.496094 467.046875 912.769531 463.601562 C 912.949219 461.492188 913.273438 459.402344 913.734375 457.335938 C 913.878906 456.679688 914.164062 456.085938 914.582031 455.558594 C 915.003906 455.03125 915.515625 454.625 916.125 454.335938 C 917.402344 453.6875 918.09375 454.15625 918.050781 455.585938 Z M 911.324219 462.210938 C 911.199219 466.222656 910.894531 475.558594 910.757812 475.6875 C 909.195312 477.265625 905.039062 480.570312 904.921875 480.183594 C 905.222656 479.285156 905.457031 478.371094 905.628906 477.441406 C 906.078125 474.519531 906.363281 471.585938 906.480469 468.632812 C 906.675781 466.777344 907.132812 464.988281 907.847656 463.265625 C 908.300781 462.402344 908.957031 461.738281 909.8125 461.269531 C 910.636719 460.738281 911.332031 461.21875 911.300781 462.210938 Z M 901.789062 504.757812 C 900.855469 505.40625 900.023438 506.171875 899.296875 507.046875 C 899.257812 507.085938 899.226562 507.128906 899.195312 507.167969 C 898.871094 507.601562 898.59375 508.066406 898.371094 508.558594 C 897.179688 504.84375 895.714844 501.242188 893.976562 497.753906 C 892.40625 494.449219 890.375 491.457031 887.886719 488.777344 C 888.027344 488.738281 889.296875 487.683594 889.878906 487.21875 C 892.949219 485.628906 896.164062 484.40625 899.515625 483.542969 C 901.363281 483.054688 905.140625 481.796875 905.160156 481.789062 C 907.703125 480.644531 909.445312 479.039062 911.386719 477.21875 C 914.097656 474.675781 917.109375 472.558594 919.796875 469.992188 C 920.335938 469.496094 920.910156 469.046875 921.519531 468.652344 L 921.769531 468.480469 C 924 467.042969 926.003906 468.070312 925.429688 470.425781 C 925.210938 471.167969 924.914062 471.882812 924.535156 472.558594 C 923.125 475.238281 920.292969 479.273438 914.953125 484.773438 C 914.800781 484.921875 914.726562 485.105469 914.726562 485.316406 C 914.726562 485.53125 914.800781 485.714844 914.953125 485.863281 C 915.082031 485.992188 915.234375 486.066406 915.414062 486.082031 C 915.660156 486.101562 915.871094 486.027344 916.046875 485.851562 C 916.285156 485.597656 916.894531 484.96875 917.714844 484.074219 C 918.578125 483.386719 922.023438 479.175781 922.9375 477.816406 C 924.019531 476.375 929.582031 468.105469 925.570312 466.457031 L 925.609375 460.570312 C 925.660156 459.515625 925.703125 458.460938 925.75 457.394531 C 925.824219 455.371094 925.90625 453.324219 927.082031 451.589844 C 927.621094 450.78125 928.300781 450.125 929.128906 449.625 C 930.269531 448.988281 931.101562 449.511719 931.160156 450.808594 C 931.226562 452.582031 931.089844 454.375 931.242188 456.140625 C 931.496094 458.910156 931.875 461.675781 932.285156 464.402344 C 932.582031 466.171875 932.699219 467.949219 932.644531 469.738281 C 932.574219 471.925781 932.054688 474 931.089844 475.960938 C 930.222656 477.695312 929.449219 479.484375 928.671875 481.273438 C 927.765625 483.359375 926.875 485.445312 925.855469 487.46875 C 923.257812 492.660156 918.941406 496.074219 914 498.761719 C 913.707031 498.929688 912.730469 499.398438 912.730469 499.398438 C 908.472656 501.082031 904.542969 502.75 901.769531 504.757812 Z M 934.921875 502.214844 C 934.367188 504.363281 933.855469 506.226562 930.515625 508.910156 C 929.019531 509.910156 927.453125 510.796875 925.824219 511.566406 L 914.3125 516.652344 L 913.632812 516.957031 C 913.632812 516.957031 912.558594 517.292969 912.804688 516.261719 C 913.328125 514.109375 913.804688 512.238281 917.101562 509.492188 C 917.773438 508.984375 918.476562 508.527344 919.214844 508.125 C 919.695312 507.777344 934.109375 501.515625 934.109375 501.515625 C 934.109375 501.515625 935.167969 501.183594 934.902344 502.207031 Z M 961.511719 489.550781 C 960.960938 491.707031 960.445312 493.570312 957.105469 496.253906 C 955.609375 497.253906 954.046875 498.140625 952.414062 498.910156 L 940.898438 503.996094 L 940.21875 504.300781 C 940.21875 504.300781 939.140625 504.628906 939.390625 503.601562 C 939.90625 501.445312 940.386719 499.578125 943.679688 496.835938 C 944.351562 496.324219 945.0625 495.871094 945.804688 495.46875 C 946.28125 495.121094 960.691406 488.851562 960.691406 488.851562 C 960.691406 488.851562 961.78125 488.535156 961.511719 489.550781 Z M 993.835938 366.863281 L 967.640625 470.765625 L 885.992188 406.730469 L 885.992188 392.109375 L 886.222656 392.109375 L 888.128906 397.5 C 888.296875 397.757812 888.53125 397.933594 888.828125 398.019531 C 889.121094 398.109375 889.414062 398.09375 889.695312 397.972656 C 889.980469 397.847656 890.191406 397.648438 890.332031 397.371094 C 890.46875 397.097656 890.503906 396.808594 890.429688 396.507812 L 888.59375 392.953125 L 897.644531 399.082031 C 897.789062 399.160156 897.945312 399.210938 898.109375 399.234375 C 898.269531 399.253906 898.433594 399.242188 898.59375 399.199219 C 898.753906 399.15625 898.898438 399.085938 899.03125 398.984375 C 899.160156 398.886719 899.269531 398.765625 899.355469 398.625 C 899.4375 398.480469 899.488281 398.324219 899.507812 398.160156 C 899.53125 397.996094 899.519531 397.832031 899.476562 397.671875 C 899.4375 397.511719 899.367188 397.367188 899.265625 397.234375 C 899.167969 397.101562 899.046875 396.992188 898.902344 396.90625 L 894.382812 394.714844 L 904.820312 398.414062 C 905.078125 398.484375 905.34375 398.503906 905.609375 398.472656 C 905.875 398.4375 906.121094 398.355469 906.355469 398.226562 C 906.589844 398.09375 906.789062 397.921875 906.953125 397.710938 C 907.117188 397.5 907.234375 397.265625 907.304688 397.007812 C 907.378906 396.75 907.394531 396.484375 907.363281 396.21875 C 907.332031 395.953125 907.246094 395.707031 907.117188 395.472656 C 906.984375 395.238281 906.8125 395.042969 906.601562 394.875 C 906.390625 394.710938 906.15625 394.59375 905.894531 394.523438 L 898.121094 392.945312 L 903.035156 393.296875 C 903.3125 393.3125 903.582031 393.273438 903.84375 393.175781 C 904.105469 393.082031 904.335938 392.9375 904.539062 392.746094 C 904.738281 392.554688 904.894531 392.332031 905.003906 392.078125 C 905.117188 391.824219 905.171875 391.554688 905.171875 391.277344 C 905.171875 391 905.117188 390.734375 905.003906 390.480469 C 904.894531 390.222656 904.738281 390 904.539062 389.808594 C 904.335938 389.617188 904.105469 389.476562 903.84375 389.378906 C 903.582031 389.285156 903.3125 389.246094 903.035156 389.261719 L 891.277344 390.09375 L 899.570312 387.128906 C 899.792969 386.90625 899.964844 386.648438 900.085938 386.355469 C 900.207031 386.066406 900.269531 385.761719 900.269531 385.445312 C 900.269531 385.128906 900.207031 384.824219 900.085938 384.535156 C 899.964844 384.242188 899.792969 383.984375 899.570312 383.761719 L 884.625 374.472656 C 884.171875 374.039062 883.628906 373.828125 883 373.839844 L 882.800781 373.839844 C 882.171875 373.828125 881.628906 374.039062 881.175781 374.472656 L 866.222656 383.773438 C 866.003906 384 865.832031 384.257812 865.714844 384.550781 C 865.597656 384.84375 865.542969 385.148438 865.542969 385.464844 C 865.546875 385.78125 865.609375 386.082031 865.734375 386.375 C 865.855469 386.664062 866.03125 386.921875 866.253906 387.144531 L 874.550781 390.105469 L 862.785156 389.273438 C 862.527344 389.289062 862.28125 389.347656 862.046875 389.457031 C 861.8125 389.566406 861.605469 389.714844 861.429688 389.902344 C 861.25 390.089844 861.113281 390.304688 861.019531 390.542969 C 860.921875 390.785156 860.875 391.03125 860.875 391.289062 C 860.875 391.550781 860.921875 391.796875 861.019531 392.039062 C 861.113281 392.277344 861.25 392.492188 861.429688 392.679688 C 861.605469 392.867188 861.8125 393.015625 862.046875 393.125 C 862.28125 393.234375 862.527344 393.292969 862.785156 393.308594 L 867.699219 392.960938 L 859.921875 394.535156 C 859.675781 394.617188 859.457031 394.742188 859.257812 394.910156 C 859.058594 395.078125 858.898438 395.277344 858.777344 395.503906 C 858.65625 395.734375 858.582031 395.976562 858.554688 396.234375 C 858.527344 396.492188 858.546875 396.746094 858.617188 396.996094 C 858.683594 397.246094 858.796875 397.472656 858.953125 397.679688 C 859.113281 397.882812 859.300781 398.054688 859.523438 398.1875 C 859.746094 398.320312 859.984375 398.40625 860.242188 398.449219 C 860.496094 398.492188 860.75 398.484375 861.003906 398.425781 L 871.441406 394.726562 L 866.921875 396.921875 C 866.671875 397.117188 866.519531 397.371094 866.460938 397.683594 C 866.402344 397.992188 866.453125 398.285156 866.613281 398.558594 C 866.773438 398.835938 867.003906 399.023438 867.304688 399.125 C 867.601562 399.226562 867.902344 399.214844 868.195312 399.09375 L 877.246094 392.964844 L 875.402344 396.519531 C 875.324219 396.824219 875.355469 397.113281 875.492188 397.394531 C 875.632812 397.675781 875.84375 397.878906 876.132812 398 C 876.417969 398.125 876.714844 398.140625 877.011719 398.046875 C 877.308594 397.953125 877.542969 397.777344 877.710938 397.511719 L 879.617188 392.121094 L 879.847656 392.121094 L 879.847656 406.742188 L 798.152344 470.765625 L 771.957031 366.839844 C 771.875 366.570312 771.824219 366.292969 771.804688 366.011719 C 771.785156 365.730469 771.796875 365.449219 771.839844 365.171875 C 771.882812 364.890625 771.953125 364.621094 772.054688 364.359375 C 772.15625 364.09375 772.289062 363.847656 772.445312 363.613281 C 772.601562 363.378906 772.785156 363.164062 772.988281 362.96875 C 773.195312 362.777344 773.417969 362.609375 773.660156 362.464844 C 773.902344 362.320312 774.160156 362.203125 774.425781 362.117188 C 774.695312 362.027344 774.96875 361.972656 775.25 361.945312 L 876.144531 347.707031 C 878.386719 347.429688 880.636719 347.304688 882.898438 347.335938 C 885.15625 347.304688 887.410156 347.429688 889.65625 347.707031 L 990.542969 361.945312 C 990.824219 361.972656 991.097656 362.027344 991.367188 362.117188 C 991.636719 362.203125 991.890625 362.320312 992.132812 362.464844 C 992.375 362.609375 992.601562 362.777344 992.804688 362.96875 C 993.011719 363.164062 993.191406 363.378906 993.347656 363.613281 C 993.507812 363.847656 993.636719 364.09375 993.738281 364.359375 C 993.839844 364.621094 993.914062 364.890625 993.957031 365.171875 C 993.996094 365.449219 994.007812 365.730469 993.988281 366.011719 C 993.96875 366.292969 993.917969 366.570312 993.835938 366.839844 Z M 993.835938 366.863281 " fill-opacity="1" fill-rule="nonzero"/></g><path fill="#f4dfb9" d="M 951.753906 430.179688 L 948.011719 431.480469 L 946.867188 435.25 L 945.5625 431.507812 L 941.785156 430.355469 L 945.53125 429.054688 L 946.683594 425.285156 L 947.984375 429.027344 Z M 951.753906 430.179688 " fill-opacity="1" fill-rule="nonzero"/><path fill="#f4dfb9" d="M 951.660156 415.140625 L 947.921875 416.433594 L 946.769531 420.210938 L 945.46875 416.46875 L 941.699219 415.324219 L 945.441406 414.019531 L 946.585938 410.242188 L 947.890625 413.988281 Z M 951.660156 415.140625 " fill-opacity="1" fill-rule="nonzero"/><path fill="#f4dfb9" d="M 947.945312 401.183594 L 944.207031 402.488281 L 943.058594 406.265625 L 941.753906 402.519531 L 937.984375 401.371094 L 941.730469 400.066406 L 942.878906 396.296875 L 944.175781 400.042969 Z M 947.945312 401.183594 " fill-opacity="1" fill-rule="nonzero"/><path fill="#f4dfb9" d="M 942.785156 387.777344 L 939.039062 389.082031 L 937.898438 392.851562 L 936.59375 389.105469 L 932.824219 387.957031 L 936.5625 386.660156 L 937.710938 382.890625 L 939.007812 386.628906 Z M 942.785156 387.777344 " fill-opacity="1" fill-rule="nonzero"/><path fill="#f4dfb9" d="M 933.089844 376.820312 L 929.347656 378.117188 L 928.195312 381.886719 L 926.898438 378.148438 L 923.125 376.996094 L 926.867188 375.695312 L 928.019531 371.925781 L 929.316406 375.667969 Z M 933.089844 376.820312 " fill-opacity="1" fill-rule="nonzero"/><path fill="#f4dfb9" d="M 921.851562 368.390625 L 918.113281 369.695312 L 916.964844 373.464844 L 915.660156 369.71875 L 911.898438 368.574219 L 915.636719 367.273438 L 916.785156 363.503906 L 918.082031 367.238281 Z M 921.851562 368.390625 " fill-opacity="1" fill-rule="nonzero"/><path fill="#f4dfb9" d="M 909.714844 362.503906 L 905.980469 363.808594 L 904.820312 367.578125 L 903.523438 363.832031 L 899.753906 362.683594 L 903.492188 361.378906 L 904.644531 357.609375 L 905.945312 361.351562 Z M 909.714844 362.503906 " fill-opacity="1" fill-rule="nonzero"/><path fill="#f4dfb9" d="M 895.214844 358.792969 L 891.480469 360.089844 L 890.328125 363.859375 L 889.023438 360.121094 L 885.253906 358.96875 L 889 357.671875 L 890.148438 353.898438 L 891.445312 357.640625 Z M 895.214844 358.792969 " fill-opacity="1" fill-rule="nonzero"/><path fill="#f4dfb9" d="M 921.261719 525.582031 L 921.953125 525.296875 L 933.566406 520.445312 C 935.246094 519.796875 936.964844 519.273438 938.722656 518.875 C 942.96875 518.304688 944.671875 519.207031 946.613281 520.289062 C 947.535156 520.796875 946.566406 521.363281 946.566406 521.363281 C 946.566406 521.363281 932.105469 527.507812 931.527344 527.617188 C 930.722656 527.875 929.90625 528.074219 929.074219 528.207031 C 924.8125 528.710938 923.128906 527.777344 921.210938 526.667969 C 920.28125 526.136719 921.261719 525.582031 921.261719 525.582031 Z M 921.261719 525.582031 " fill-opacity="1" fill-rule="evenodd"/><path fill="#f4dfb9" d="M 948.285156 513.890625 L 948.976562 513.605469 L 960.578125 508.75 C 962.257812 508.097656 963.980469 507.570312 965.738281 507.171875 C 969.984375 506.601562 971.683594 507.511719 973.628906 508.589844 C 974.550781 509.097656 973.578125 509.664062 973.578125 509.664062 C 973.578125 509.664062 959.117188 515.8125 958.539062 515.921875 C 957.734375 516.175781 956.914062 516.375 956.082031 516.511719 C 951.832031 517.011719 950.140625 516.078125 948.21875 514.972656 C 947.304688 514.472656 948.285156 513.890625 948.285156 513.890625 Z M 948.285156 513.890625 " fill-opacity="1" fill-rule="evenodd"/><g clip-path="url(#86ac53be43)"><path fill="#f4dfb9" d="M 893.765625 536.179688 L 894.460938 535.894531 L 901.902344 532.785156 L 902.609375 532.492188 L 903.308594 532.199219 L 906.074219 531.042969 C 907.753906 530.390625 909.472656 529.863281 911.230469 529.464844 C 915.480469 528.894531 917.179688 529.804688 919.125 530.882812 C 920.039062 531.394531 919.074219 531.957031 919.074219 531.957031 C 919.074219 531.957031 904.613281 538.105469 904.035156 538.214844 L 903.015625 538.5 C 902.75 538.570312 902.496094 538.632812 902.253906 538.683594 C 902.011719 538.734375 901.777344 538.78125 901.578125 538.804688 L 901.511719 538.804688 C 897.300781 539.289062 895.625 538.359375 893.714844 537.253906 C 892.792969 536.71875 893.765625 536.179688 893.765625 536.179688 Z M 893.765625 536.179688 " fill-opacity="1" fill-rule="evenodd"/></g><path fill="#f4dfb9" d="M 968.441406 501.230469 L 967.976562 501.027344 L 968.089844 500.53125 C 969.128906 496.015625 974.074219 493.539062 974.285156 493.441406 L 989.457031 486.003906 C 992 484.652344 993.835938 485.746094 994.636719 487.109375 C 995.519531 488.609375 995.484375 490.863281 993.882812 491.890625 L 977.539062 500.625 C 975.367188 501.199219 973.160156 501.53125 970.914062 501.617188 C 970.0625 501.652344 969.238281 501.523438 968.441406 501.230469 Z M 968.441406 501.230469 " fill-opacity="1" fill-rule="evenodd"/><path fill="#f4dfb9" d="M 883.640625 516.828125 C 883.660156 517.046875 883.597656 517.238281 883.449219 517.398438 C 883.300781 517.5625 883.121094 517.640625 882.898438 517.640625 C 882.679688 517.640625 882.5 517.5625 882.351562 517.398438 C 882.203125 517.238281 882.140625 517.046875 882.160156 516.828125 C 882.160156 512.785156 882.121094 494.121094 882.898438 492.222656 C 883.679688 494.128906 883.652344 512.785156 883.640625 516.828125 Z M 883.640625 516.828125 " fill-opacity="1" fill-rule="nonzero"/></svg>