<svg xmlns="http://www.w3.org/2000/svg" xmlns:xlink="http://www.w3.org/1999/xlink" zoomAndPan="magnify" preserveAspectRatio="xMidYMid meet" version="1.0" viewBox="44.05 271 1351.42 267.89"><defs><clipPath id="dd8677b6c9"><path d="M 346 510 L 434 510 L 434 536.484375 L 346 536.484375 Z M 346 510 " clip-rule="nonzero"/></clipPath><clipPath id="c736151360"><path d="M 44.050781 410 L 123 410 L 123 503 L 44.050781 503 Z M 44.050781 410 " clip-rule="nonzero"/></clipPath><clipPath id="9ad2600aab"><path d="M 571 410 L 649.800781 410 L 649.800781 503 L 571 503 Z M 571 410 " clip-rule="nonzero"/></clipPath><clipPath id="eecc884726"><path d="M 52 362.464844 L 75 362.464844 L 75 393 L 52 393 Z M 52 362.464844 " clip-rule="nonzero"/></clipPath><clipPath id="8fbd8df92a"><path d="M 140 362.464844 L 145 362.464844 L 145 393 L 140 393 Z M 140 362.464844 " clip-rule="nonzero"/></clipPath><clipPath id="c37319d091"><path d="M 198 362.464844 L 203 362.464844 L 203 393 L 198 393 Z M 198 362.464844 " clip-rule="nonzero"/></clipPath><clipPath id="cf05116739"><path d="M 239 362.464844 L 260 362.464844 L 260 394 L 239 394 Z M 239 362.464844 " clip-rule="nonzero"/></clipPath><clipPath id="18c6d8b5b7"><path d="M 290 362.464844 L 295 362.464844 L 295 393 L 290 393 Z M 290 362.464844 " clip-rule="nonzero"/></clipPath><clipPath id="ce210b346e"><path d="M 1369 412 L 1395.472656 412 L 1395.472656 445 L 1369 445 Z M 1369 412 " clip-rule="nonzero"/></clipPath><clipPath id="9ebbbd09e1"><path d="M 811 271.003906 L 953 271.003906 L 953 347 L 811 347 Z M 811 271.003906 " clip-rule="nonzero"/></clipPath><clipPath id="ca341f4dc0"><path d="M 846 529 L 873 529 L 873 538.898438 L 846 538.898438 Z M 846 529 " clip-rule="nonzero"/></clipPath><clipPath id="ccd0aa1f44"><path d="M 766.699219 342 L 999 342 L 999 535 L 766.699219 535 Z M 766.699219 342 " clip-rule="nonzero"/></clipPath><clipPath id="43732a1298"><path d="M 893 529 L 920 529 L 920 538.898438 L 893 538.898438 Z M 893 529 " clip-rule="nonzero"/></clipPath></defs><g clip-path="url(#dd8677b6c9)"><path fill="#2b3e4c" d="M 410.328125 510.972656 C 408.960938 512.214844 407.488281 513.324219 405.917969 514.292969 C 404.34375 515.261719 402.695312 516.078125 400.96875 516.742188 C 399.246094 517.40625 397.476562 517.90625 395.65625 518.238281 C 393.839844 518.574219 392.007812 518.738281 390.160156 518.730469 C 388.292969 518.742188 386.4375 518.585938 384.59375 518.253906 C 382.753906 517.921875 380.960938 517.425781 379.210938 516.761719 C 377.464844 516.097656 375.789062 515.277344 374.195312 514.304688 C 372.597656 513.332031 371.101562 512.222656 369.707031 510.972656 L 346.605469 510.972656 C 354.800781 526.140625 370.984375 536.484375 390.144531 536.484375 C 409.191406 536.484375 425.167969 526.140625 433.324219 510.972656 Z M 410.328125 510.972656 " fill-opacity="1" fill-rule="nonzero"/></g><path fill="#2b3e4c" d="M 585.820312 401.828125 C 584.453125 400.585938 582.980469 399.476562 581.410156 398.507812 C 579.835938 397.535156 578.1875 396.71875 576.464844 396.054688 C 574.738281 395.394531 572.96875 394.894531 571.152344 394.558594 C 569.332031 394.226562 567.5 394.0625 565.652344 394.066406 C 563.785156 394.054688 561.929688 394.214844 560.089844 394.546875 C 558.246094 394.878906 556.453125 395.375 554.703125 396.039062 C 552.957031 396.703125 551.28125 397.519531 549.6875 398.492188 C 548.089844 399.46875 546.59375 400.578125 545.203125 401.828125 L 522.097656 401.828125 C 530.300781 386.691406 546.476562 376.316406 565.636719 376.316406 C 584.683594 376.316406 600.664062 386.660156 608.816406 401.828125 Z M 585.820312 401.828125 " fill-opacity="1" fill-rule="nonzero"/><g clip-path="url(#c736151360)"><path fill="#2b3e4c" d="M 83.699219 410.679688 C 96.398438 410.679688 106.085938 414.027344 112.765625 420.714844 C 119.449219 427.40625 122.789062 437.621094 122.792969 451.355469 L 122.792969 502.152344 L 105.132812 502.152344 L 105.132812 452.371094 C 105.132812 446.980469 104.359375 442.347656 102.8125 438.472656 C 102.136719 436.640625 101.191406 434.960938 99.972656 433.433594 C 98.757812 431.90625 97.332031 430.609375 95.699219 429.542969 C 92.5 427.480469 88.445312 426.453125 83.53125 426.457031 C 78.378906 426.457031 74.242188 427.507812 71.09375 429.632812 C 69.496094 430.722656 68.113281 432.039062 66.9375 433.578125 C 65.765625 435.117188 64.867188 436.804688 64.238281 438.636719 C 62.8125 442.519531 62.097656 447.097656 62.097656 452.371094 L 62.097656 502.136719 L 44.429688 502.136719 L 44.429688 451.339844 C 44.429688 437.378906 47.832031 427.113281 54.632812 420.535156 C 61.433594 413.960938 71.121094 410.675781 83.699219 410.679688 " fill-opacity="1" fill-rule="nonzero"/></g><path fill="#2b3e4c" d="M 255.308594 502.136719 C 242.613281 502.136719 232.925781 498.792969 226.246094 492.101562 C 219.570312 485.410156 216.226562 475.199219 216.21875 461.464844 L 216.21875 410.679688 L 233.878906 410.679688 L 233.878906 460.449219 C 233.878906 465.832031 234.648438 470.464844 236.195312 474.34375 C 236.875 476.171875 237.816406 477.847656 239.03125 479.371094 C 240.246094 480.894531 241.664062 482.191406 243.292969 483.257812 C 246.503906 485.332031 250.570312 486.371094 255.484375 486.371094 C 260.632812 486.371094 264.765625 485.316406 267.914062 483.195312 C 269.511719 482.105469 270.898438 480.789062 272.070312 479.246094 C 273.242188 477.707031 274.140625 476.019531 274.769531 474.1875 C 276.203125 470.300781 276.914062 465.714844 276.914062 460.457031 L 276.914062 410.679688 L 294.578125 410.679688 L 294.578125 461.484375 C 294.578125 475.441406 291.175781 485.710938 284.378906 492.28125 C 277.578125 498.851562 267.886719 502.140625 255.308594 502.152344 " fill-opacity="1" fill-rule="nonzero"/><path fill="#2b3e4c" d="M 384.246094 431.746094 C 382.652344 428.347656 380.597656 425.253906 378.089844 422.464844 C 375.578125 419.679688 372.71875 417.3125 369.507812 415.375 C 362.949219 411.402344 355.011719 409.457031 345.699219 409.457031 C 336.390625 409.457031 328.375 411.402344 321.8125 415.375 C 318.601562 417.316406 315.726562 419.671875 313.191406 422.445312 C 310.660156 425.214844 308.566406 428.289062 306.914062 431.660156 C 303.511719 438.636719 301.730469 446.742188 301.730469 455.976562 C 301.730469 465.210938 303.410156 473.160156 306.828125 480.207031 C 308.441406 483.585938 310.511719 486.65625 313.035156 489.417969 C 315.5625 492.179688 318.433594 494.515625 321.652344 496.421875 C 328.210938 500.230469 336.148438 502.175781 345.539062 502.175781 C 354.925781 502.175781 362.949219 500.230469 369.429688 496.421875 C 372.632812 494.511719 375.492188 492.175781 378.003906 489.410156 C 380.511719 486.648438 382.566406 483.578125 384.160156 480.203125 C 387.566406 473.15625 389.203125 465.210938 389.203125 456.132812 C 389.203125 446.894531 387.585938 438.707031 384.261719 431.738281 M 369.035156 471.125 C 368.191406 473.351562 367.046875 475.414062 365.597656 477.304688 C 364.152344 479.195312 362.460938 480.835938 360.535156 482.234375 C 356.652344 484.992188 351.710938 486.363281 345.554688 486.363281 C 339.398438 486.363281 334.460938 484.992188 330.574219 482.234375 C 328.632812 480.871094 326.9375 479.253906 325.484375 477.378906 C 324.03125 475.5 322.886719 473.453125 322.054688 471.234375 C 320.273438 466.304688 319.414062 461.21875 319.476562 455.976562 C 319.429688 450.792969 320.292969 445.769531 322.070312 440.902344 C 322.910156 438.671875 324.054688 436.613281 325.503906 434.722656 C 326.953125 432.832031 328.640625 431.191406 330.574219 429.800781 C 334.460938 426.960938 339.480469 425.589844 345.554688 425.589844 C 351.625 425.589844 356.652344 426.960938 360.535156 429.800781 C 362.445312 431.210938 364.121094 432.863281 365.566406 434.75 C 367.011719 436.636719 368.167969 438.6875 369.035156 440.902344 C 370.882812 445.757812 371.773438 450.78125 371.707031 455.976562 C 371.765625 461.191406 370.875 466.238281 369.035156 471.113281 " fill-opacity="1" fill-rule="nonzero"/><path fill="#2b3e4c" d="M 434.257812 502.136719 C 421.5625 502.136719 411.875 498.792969 405.195312 492.101562 C 398.519531 485.410156 395.175781 475.199219 395.167969 461.464844 L 395.167969 410.679688 L 412.832031 410.679688 L 412.832031 460.449219 C 412.832031 465.832031 413.605469 470.464844 415.152344 474.34375 C 415.824219 476.175781 416.773438 477.855469 417.988281 479.382812 C 419.203125 480.910156 420.628906 482.207031 422.265625 483.277344 C 425.441406 485.339844 429.5 486.371094 434.433594 486.371094 C 439.578125 486.371094 443.722656 485.3125 446.867188 483.195312 C 448.464844 482.101562 449.847656 480.785156 451.019531 479.246094 C 452.191406 477.703125 453.09375 476.019531 453.722656 474.1875 C 455.152344 470.300781 455.863281 465.714844 455.863281 460.457031 L 455.863281 410.679688 L 473.527344 410.679688 L 473.527344 461.484375 C 473.527344 475.441406 470.125 485.710938 463.324219 492.28125 C 456.523438 498.851562 446.835938 502.140625 434.253906 502.152344 " fill-opacity="1" fill-rule="nonzero"/><path fill="#2b3e4c" d="M 171.539062 502.136719 C 162.050781 502.136719 154.109375 500.191406 147.710938 496.300781 C 144.535156 494.386719 141.714844 492.050781 139.246094 489.285156 C 136.773438 486.523438 134.765625 483.453125 133.21875 480.085938 C 129.960938 473.160156 128.332031 465.175781 128.328125 456.140625 C 128.328125 446.992188 130.007812 438.929688 133.371094 431.945312 C 134.976562 428.542969 137.035156 425.4375 139.546875 422.632812 C 142.058594 419.828125 144.914062 417.441406 148.121094 415.46875 C 154.570312 411.464844 162.367188 409.464844 171.519531 409.464844 C 178.496094 409.464844 184.554688 410.75 189.695312 413.328125 C 194.75 415.804688 199.007812 419.265625 202.46875 423.703125 C 205.859375 428.074219 208.34375 432.90625 209.925781 438.210938 C 210.730469 440.878906 211.300781 445.402344 211.644531 449.984375 C 211.703125 450.75 211.679688 451.511719 211.578125 452.273438 C 211.480469 453.035156 211.304688 453.78125 211.050781 454.503906 C 210.796875 455.230469 210.472656 455.921875 210.074219 456.582031 C 209.679688 457.238281 209.21875 457.847656 208.695312 458.414062 C 208.175781 458.976562 207.601562 459.480469 206.972656 459.921875 C 206.347656 460.367188 205.683594 460.742188 204.980469 461.050781 C 204.277344 461.359375 203.546875 461.589844 202.796875 461.746094 C 202.046875 461.902344 201.285156 461.980469 200.519531 461.980469 L 146.164062 461.980469 C 146.457031 466.40625 147.628906 470.582031 149.683594 474.511719 C 150.652344 476.371094 151.859375 478.066406 153.296875 479.59375 C 154.734375 481.125 156.351562 482.429688 158.148438 483.511719 C 161.808594 485.753906 166.324219 486.875 171.691406 486.875 C 174.628906 486.878906 177.515625 486.507812 180.351562 485.753906 C 183.101562 485.042969 185.617188 483.839844 187.898438 482.148438 C 189.058594 481.296875 190.050781 480.285156 190.882812 479.109375 C 191.640625 478.039062 192.597656 477.207031 193.761719 476.605469 C 194.925781 476.007812 196.164062 475.710938 197.472656 475.71875 C 204.449219 475.71875 208.320312 483.9375 203.8125 489.273438 C 203.390625 489.773438 202.949219 490.261719 202.492188 490.734375 C 198.570312 494.761719 193.941406 497.652344 188.605469 499.402344 C 183.066406 501.253906 177.378906 502.167969 171.539062 502.148438 M 146.511719 447.914062 L 194.519531 447.914062 C 194.480469 443.683594 193.449219 439.707031 191.433594 435.988281 C 190.488281 434.273438 189.328125 432.714844 187.957031 431.316406 C 186.585938 429.914062 185.050781 428.726562 183.355469 427.746094 C 179.921875 425.746094 175.816406 424.742188 171.03125 424.738281 C 165.769531 424.738281 161.398438 425.824219 157.921875 428 C 154.472656 430.097656 151.785156 432.921875 149.855469 436.472656 C 147.929688 440.039062 146.808594 443.84375 146.496094 447.886719 " fill-opacity="1" fill-rule="nonzero"/><g clip-path="url(#9ad2600aab)"><path fill="#2b3e4c" d="M 610.332031 410.679688 C 623.03125 410.679688 632.71875 414.027344 639.394531 420.714844 C 646.074219 427.40625 649.414062 437.621094 649.421875 451.355469 L 649.421875 502.152344 L 631.761719 502.152344 L 631.761719 452.371094 C 631.761719 446.980469 630.988281 442.347656 629.445312 438.472656 C 628.769531 436.640625 627.820312 434.964844 626.605469 433.4375 C 625.386719 431.910156 623.964844 430.609375 622.332031 429.542969 C 619.132812 427.480469 615.074219 426.453125 610.160156 426.457031 C 605.011719 426.457031 600.871094 427.507812 597.730469 429.632812 C 596.128906 430.722656 594.746094 432.039062 593.574219 433.578125 C 592.398438 435.117188 591.5 436.804688 590.871094 438.636719 C 589.4375 442.519531 588.722656 447.097656 588.726562 452.371094 L 588.726562 502.136719 L 571.058594 502.136719 L 571.058594 451.339844 C 571.058594 437.378906 574.460938 427.113281 581.261719 420.535156 C 588.058594 413.960938 597.75 410.675781 610.332031 410.679688 " fill-opacity="1" fill-rule="nonzero"/></g><path fill="#2b3e4c" d="M 519.148438 502.136719 C 528.636719 502.136719 536.582031 500.191406 542.976562 496.300781 C 546.152344 494.386719 548.972656 492.050781 551.445312 489.285156 C 553.914062 486.523438 555.921875 483.453125 557.46875 480.085938 C 560.722656 473.15625 562.351562 465.171875 562.359375 456.140625 C 562.359375 446.992188 560.679688 438.929688 557.316406 431.945312 C 555.710938 428.542969 553.652344 425.4375 551.144531 422.632812 C 548.632812 419.828125 545.777344 417.441406 542.574219 415.46875 C 536.121094 411.457031 528.320312 409.453125 519.167969 409.457031 C 512.195312 409.457031 506.132812 410.746094 500.992188 413.320312 C 495.9375 415.800781 491.679688 419.261719 488.21875 423.703125 C 484.828125 428.070312 482.34375 432.902344 480.765625 438.203125 C 479.957031 440.871094 479.386719 445.402344 479.042969 449.976562 C 478.988281 450.742188 479.007812 451.507812 479.109375 452.269531 C 479.207031 453.03125 479.386719 453.773438 479.640625 454.5 C 479.890625 455.226562 480.21875 455.917969 480.613281 456.574219 C 481.007812 457.234375 481.46875 457.84375 481.992188 458.40625 C 482.511719 458.96875 483.085938 459.472656 483.714844 459.917969 C 484.339844 460.363281 485.003906 460.738281 485.707031 461.046875 C 486.410156 461.351562 487.140625 461.585938 487.890625 461.742188 C 488.640625 461.898438 489.402344 461.976562 490.167969 461.976562 L 544.546875 461.976562 C 544.253906 466.398438 543.082031 470.574219 541.027344 474.5 C 540.054688 476.367188 538.847656 478.0625 537.40625 479.59375 C 535.964844 481.125 534.34375 482.429688 532.542969 483.511719 C 528.886719 485.753906 524.371094 486.875 518.996094 486.875 C 516.058594 486.882812 513.171875 486.507812 510.335938 485.753906 C 507.585938 485.042969 505.074219 483.84375 502.789062 482.15625 C 501.632812 481.300781 500.636719 480.285156 499.804688 479.109375 C 499.046875 478.042969 498.089844 477.207031 496.925781 476.609375 C 495.761719 476.007812 494.523438 475.710938 493.21875 475.71875 C 486.242188 475.71875 482.371094 483.9375 486.875 489.269531 C 487.296875 489.773438 487.738281 490.261719 488.199219 490.734375 C 492.121094 494.757812 496.753906 497.644531 502.09375 499.390625 C 507.632812 501.238281 513.320312 502.15625 519.160156 502.136719 M 544.1875 447.902344 L 496.179688 447.902344 C 496.21875 443.671875 497.25 439.695312 499.265625 435.976562 C 501.191406 432.488281 503.875 429.746094 507.320312 427.746094 C 510.757812 425.738281 514.875 424.738281 519.675781 424.738281 C 524.933594 424.738281 529.300781 425.820312 532.78125 427.992188 C 536.222656 430.097656 538.90625 432.925781 540.832031 436.472656 C 542.761719 440.039062 543.878906 443.84375 544.191406 447.886719 " fill-opacity="1" fill-rule="nonzero"/><g clip-path="url(#eecc884726)"><path fill="#2b3e4c" d="M 52.957031 392.925781 L 52.957031 362.777344 L 64.859375 362.777344 C 65.613281 362.777344 66.359375 362.832031 67.101562 362.945312 C 71.976562 363.695312 74.550781 367.488281 74.550781 372.28125 C 74.550781 377.074219 71.957031 380.863281 67.101562 381.617188 C 66.359375 381.730469 65.613281 381.785156 64.859375 381.785156 L 56.683594 381.785156 L 56.683594 392.925781 Z M 56.683594 378.246094 L 64.730469 378.246094 C 65.367188 378.25 65.992188 378.191406 66.613281 378.0625 C 69.503906 377.410156 70.714844 374.792969 70.714844 372.28125 C 70.714844 369.769531 69.503906 367.148438 66.613281 366.503906 C 65.992188 366.371094 65.367188 366.308594 64.730469 366.316406 L 56.683594 366.316406 Z M 56.683594 378.246094 " fill-opacity="1" fill-rule="nonzero"/></g><path fill="#2b3e4c" d="M 78.691406 392.925781 L 78.691406 370.3125 L 82.019531 370.3125 L 82.019531 373.894531 C 82.503906 373.023438 83.148438 372.292969 83.945312 371.699219 C 84.867188 371.019531 85.890625 370.558594 87.007812 370.316406 C 88.125 370.078125 89.246094 370.074219 90.367188 370.3125 L 90.367188 373.8125 C 89.484375 373.570312 88.589844 373.523438 87.6875 373.671875 C 86.785156 373.820312 85.957031 374.152344 85.199219 374.667969 C 83.003906 376.238281 82.460938 378.894531 82.460938 381.578125 L 82.460938 392.925781 Z M 78.691406 392.925781 " fill-opacity="1" fill-rule="nonzero"/><path fill="#2b3e4c" d="M 92.640625 381.597656 C 92.640625 374.5 96.886719 369.683594 103.511719 369.683594 C 110.289062 369.683594 114.414062 374.605469 114.414062 381.597656 C 114.414062 388.691406 110.230469 393.546875 103.511719 393.546875 C 96.796875 393.546875 92.640625 388.605469 92.640625 381.597656 Z M 110.457031 381.597656 C 110.457031 376.507812 108.132812 373.222656 103.511719 373.222656 C 98.789062 373.222656 96.589844 376.652344 96.589844 381.597656 C 96.589844 386.707031 98.953125 390.007812 103.511719 390.007812 C 108.179688 390.015625 110.460938 386.570312 110.460938 381.597656 Z M 110.457031 381.597656 " fill-opacity="1" fill-rule="nonzero"/><path fill="#2b3e4c" d="M 124.273438 392.925781 L 116.078125 370.3125 L 119.84375 370.3125 L 126.175781 388.167969 L 132.492188 370.3125 L 136.300781 370.3125 L 128.082031 392.925781 Z M 124.273438 392.925781 " fill-opacity="1" fill-rule="nonzero"/><g clip-path="url(#8fbd8df92a)"><path fill="#2b3e4c" d="M 140.449219 366.316406 L 140.449219 362.464844 L 144.175781 362.464844 L 144.175781 366.316406 Z M 140.449219 392.925781 L 140.449219 370.3125 L 144.175781 370.3125 L 144.175781 392.925781 Z M 140.449219 392.925781 " fill-opacity="1" fill-rule="nonzero"/></g><path fill="#2b3e4c" d="M 150.425781 392.925781 L 150.425781 370.3125 L 153.789062 370.3125 L 153.789062 373.222656 C 155.46875 370.980469 158.058594 369.730469 161.316406 369.730469 C 168.601562 369.730469 170.3125 376.132812 170.3125 380.421875 L 170.3125 392.925781 L 166.550781 392.925781 L 166.550781 381.597656 C 166.550781 377.347656 165.195312 373.265625 160.425781 373.265625 C 156.679688 373.265625 154.214844 375.777344 154.214844 381.011719 L 154.214844 392.925781 Z M 150.425781 392.925781 " fill-opacity="1" fill-rule="nonzero"/><path fill="#2b3e4c" d="M 174.257812 381.617188 C 174.320312 374.5625 178.273438 369.683594 185.074219 369.683594 C 189.820312 369.683594 193.476562 372.195312 194.691406 376.253906 L 191.011719 377.375 C 190.800781 376.757812 190.496094 376.1875 190.101562 375.664062 C 189.707031 375.144531 189.238281 374.695312 188.703125 374.320312 C 188.164062 373.949219 187.582031 373.667969 186.957031 373.480469 C 186.328125 373.292969 185.6875 373.207031 185.035156 373.222656 C 180.390625 373.222656 178.257812 376.722656 178.21875 381.632812 C 178.257812 386.679688 180.539062 390.042969 185.035156 390.042969 C 187.964844 390.042969 189.910156 388.65625 190.933594 386.085938 L 194.699219 387.066406 C 193.109375 391.292969 189.703125 393.574219 185.035156 393.574219 C 178.152344 393.546875 174.320312 388.546875 174.257812 381.617188 Z M 174.257812 381.617188 " fill-opacity="1" fill-rule="nonzero"/><g clip-path="url(#c37319d091)"><path fill="#2b3e4c" d="M 198.757812 366.316406 L 198.757812 362.464844 L 202.484375 362.464844 L 202.484375 366.316406 Z M 198.757812 392.925781 L 198.757812 370.3125 L 202.484375 370.3125 L 202.484375 392.925781 Z M 198.757812 392.925781 " fill-opacity="1" fill-rule="nonzero"/></g><path fill="#2b3e4c" d="M 207.5 386.808594 C 207.5 383.253906 209.609375 381.199219 213.042969 380.175781 C 215.84375 379.417969 219.839844 378.933594 223.183594 378.492188 C 223.082031 374.894531 221.535156 373.175781 217.621094 373.175781 C 214.882812 373.175781 212.6875 374.371094 211.875 377.136719 L 208.339844 376.066406 C 209.402344 372.105469 212.5625 369.703125 217.664062 369.703125 C 221.742188 369.703125 224.820312 371.171875 226.113281 374.121094 C 226.742188 375.519531 226.847656 377.175781 226.847656 378.953125 L 226.847656 392.96875 L 223.542969 392.96875 L 223.542969 389.402344 C 221.742188 392.167969 218.941406 393.546875 215.171875 393.546875 C 210.113281 393.546875 207.5 390.453125 207.5 386.808594 Z M 222.769531 385.214844 C 223.035156 384.046875 223.160156 382.859375 223.144531 381.660156 C 219.960938 382.074219 216.910156 382.433594 214.742188 383.0625 C 212.882812 383.621094 211.230469 384.675781 211.230469 386.789062 C 211.230469 388.652344 212.546875 390.429688 215.765625 390.429688 C 219.765625 390.429688 222.226562 388.023438 222.769531 385.214844 Z M 222.769531 385.214844 " fill-opacity="1" fill-rule="nonzero"/><g clip-path="url(#cf05116739)"><path fill="#2b3e4c" d="M 239.371094 381.597656 C 239.371094 374.816406 243.199219 369.683594 249.457031 369.683594 C 250.714844 369.632812 251.929688 369.839844 253.101562 370.308594 C 254.273438 370.773438 255.296875 371.460938 256.179688 372.363281 L 256.179688 362.777344 L 259.917969 362.777344 L 259.917969 392.925781 L 256.597656 392.925781 L 256.597656 390.367188 C 255.726562 391.414062 254.671875 392.21875 253.429688 392.777344 C 252.191406 393.335938 250.890625 393.589844 249.527344 393.546875 C 243.1875 393.546875 239.371094 388.378906 239.371094 381.597656 Z M 256.5625 381.597656 C 256.574219 376.59375 254.496094 373.117188 250.070312 373.117188 C 245.46875 373.117188 243.351562 376.839844 243.351562 381.617188 C 243.351562 386.390625 245.535156 390.136719 249.964844 390.136719 C 254.523438 390.136719 256.574219 386.570312 256.574219 381.597656 Z M 256.5625 381.597656 " fill-opacity="1" fill-rule="nonzero"/></g><path fill="#2b3e4c" d="M 264.492188 381.761719 C 264.492188 374.355469 268.796875 369.683594 275.371094 369.683594 C 282.164062 369.683594 286.140625 374.625 285.804688 382.664062 L 268.5 382.664062 C 268.796875 387.351562 271.222656 390.015625 275.386719 390.015625 C 276.0625 390.039062 276.726562 389.964844 277.382812 389.792969 C 278.035156 389.617188 278.652344 389.355469 279.226562 388.996094 C 279.804688 388.640625 280.3125 388.207031 280.761719 387.699219 C 281.207031 387.191406 281.570312 386.628906 281.851562 386.011719 L 285.429688 387.246094 C 285.011719 388.199219 284.460938 389.074219 283.78125 389.867188 C 283.101562 390.65625 282.320312 391.332031 281.441406 391.894531 C 280.558594 392.453125 279.617188 392.871094 278.609375 393.148438 C 277.605469 393.425781 276.582031 393.550781 275.539062 393.523438 C 268.867188 393.546875 264.492188 388.816406 264.492188 381.761719 Z M 268.550781 379.671875 L 281.945312 379.671875 C 281.488281 375.234375 279.328125 373.03125 275.503906 373.03125 C 271.453125 373.03125 269.09375 375.359375 268.550781 379.671875 Z M 268.550781 379.671875 " fill-opacity="1" fill-rule="nonzero"/><g clip-path="url(#18c6d8b5b7)"><path fill="#2b3e4c" d="M 290.859375 362.777344 L 294.578125 362.777344 L 294.578125 392.925781 L 290.859375 392.925781 Z M 290.859375 362.777344 " fill-opacity="1" fill-rule="nonzero"/></g><path fill="#2b3e4c" d="M 1040.269531 365.742188 C 1040.269531 352.855469 1047.570312 344.710938 1058.886719 344.710938 C 1067.933594 344.710938 1073.460938 349.230469 1075.566406 356.503906 L 1070.511719 357.542969 C 1068.804688 352.65625 1064.894531 349.511719 1059.140625 349.484375 C 1050.09375 349.429688 1045.632812 356.058594 1045.574219 365.742188 C 1045.519531 375.429688 1050.09375 381.96875 1059.140625 382.027344 C 1066.945312 382.085938 1070.988281 377.335938 1071.605469 369.277344 L 1062.992188 369.277344 L 1062.992188 365.152344 L 1076.871094 365.152344 C 1076.953125 365.941406 1076.976562 367.199219 1076.976562 367.535156 C 1076.976562 378.628906 1070.691406 386.800781 1058.867188 386.800781 C 1047.71875 386.800781 1040.269531 378.765625 1040.269531 365.742188 Z M 1040.269531 365.742188 " fill-opacity="1" fill-rule="nonzero"/><path fill="#2b3e4c" d="M 1079.789062 370.789062 C 1079.789062 361.257812 1085.507812 354.816406 1094.40625 354.816406 C 1103.503906 354.816406 1109.027344 361.414062 1109.027344 370.789062 C 1109.027344 380.324219 1103.410156 386.828125 1094.40625 386.828125 C 1085.40625 386.828125 1079.789062 380.171875 1079.789062 370.789062 Z M 1103.714844 370.789062 C 1103.714844 363.96875 1100.59375 359.558594 1094.390625 359.558594 C 1088.03125 359.558594 1085.09375 364.167969 1085.09375 370.789062 C 1085.09375 377.640625 1088.273438 382.078125 1094.390625 382.078125 C 1100.65625 382.054688 1103.714844 377.453125 1103.714844 370.789062 Z M 1103.714844 370.789062 " fill-opacity="1" fill-rule="nonzero"/><path fill="#2b3e4c" d="M 1114.042969 385.957031 L 1114.042969 345.527344 L 1119.089844 345.527344 L 1119.089844 358.382812 C 1121.253906 356.109375 1124.257812 354.792969 1128.046875 354.792969 C 1136.46875 354.792969 1141.613281 361.667969 1141.613281 370.765625 C 1141.613281 379.859375 1136.527344 386.800781 1128.023438 386.800781 C 1127.121094 386.828125 1126.226562 386.757812 1125.34375 386.582031 C 1124.457031 386.40625 1123.605469 386.132812 1122.78125 385.761719 C 1121.960938 385.394531 1121.191406 384.933594 1120.472656 384.390625 C 1119.753906 383.84375 1119.109375 383.222656 1118.53125 382.53125 L 1118.53125 385.957031 Z M 1136.292969 370.765625 C 1136.292969 364.363281 1133.425781 359.367188 1127.253906 359.367188 C 1121.320312 359.367188 1118.519531 364.058594 1118.519531 370.765625 C 1118.519531 377.46875 1121.269531 382.207031 1127.417969 382.207031 C 1133.367188 382.230469 1136.285156 377.222656 1136.285156 370.789062 Z M 1136.292969 370.765625 " fill-opacity="1" fill-rule="nonzero"/><path fill="#2b3e4c" d="M 1147.207031 350.273438 L 1147.207031 345.105469 L 1152.210938 345.105469 L 1152.210938 350.273438 Z M 1147.207031 385.957031 L 1147.207031 355.632812 L 1152.210938 355.632812 L 1152.210938 385.957031 Z M 1147.207031 385.957031 " fill-opacity="1" fill-rule="nonzero"/><path fill="#2b3e4c" d="M 1157.824219 370.992188 C 1157.824219 361.054688 1163.605469 354.792969 1172.441406 354.792969 C 1181.570312 354.792969 1186.902344 361.414062 1186.425781 372.203125 L 1163.1875 372.203125 C 1163.582031 378.488281 1166.835938 382.054688 1172.421875 382.054688 C 1176.410156 382.054688 1179.449219 380.144531 1181.132812 376.71875 L 1185.933594 378.378906 C 1183.546875 383.738281 1178.519531 386.800781 1172.644531 386.800781 C 1163.691406 386.800781 1157.824219 380.484375 1157.824219 370.992188 Z M 1163.269531 368.183594 L 1181.242188 368.183594 C 1180.605469 362.234375 1177.730469 359.285156 1172.59375 359.285156 C 1167.171875 359.285156 1164 362.425781 1163.269531 368.183594 Z M 1163.269531 368.183594 " fill-opacity="1" fill-rule="nonzero"/><path fill="#2b3e4c" d="M 1191.558594 385.957031 L 1191.558594 355.632812 L 1196.007812 355.632812 L 1196.007812 360.4375 C 1196.65625 359.269531 1197.519531 358.289062 1198.589844 357.488281 C 1200.921875 355.582031 1204.488281 355.046875 1207.183594 355.632812 L 1207.183594 360.324219 C 1205.996094 360 1204.800781 359.9375 1203.589844 360.136719 C 1202.378906 360.339844 1201.261719 360.785156 1200.246094 361.472656 C 1197.296875 363.582031 1196.566406 367.148438 1196.566406 370.738281 L 1196.566406 385.957031 Z M 1191.558594 385.957031 " fill-opacity="1" fill-rule="nonzero"/><path fill="#2b3e4c" d="M 1211.371094 385.957031 L 1211.371094 355.632812 L 1215.867188 355.632812 L 1215.867188 359.535156 C 1218.109375 356.535156 1221.585938 354.851562 1225.972656 354.851562 C 1235.75 354.851562 1238.050781 363.4375 1238.050781 369.195312 L 1238.050781 385.957031 L 1232.996094 385.957031 L 1232.996094 370.789062 C 1232.996094 365.070312 1231.171875 359.617188 1224.734375 359.617188 C 1219.710938 359.617188 1216.394531 362.984375 1216.394531 370.007812 L 1216.394531 385.980469 Z M 1211.371094 385.957031 " fill-opacity="1" fill-rule="nonzero"/><path fill="#2b3e4c" d="M 1242.257812 370.789062 C 1242.257812 361.257812 1247.980469 354.816406 1256.878906 354.816406 C 1265.980469 354.816406 1271.5 361.414062 1271.5 370.789062 C 1271.5 380.324219 1265.878906 386.828125 1256.878906 386.828125 C 1247.878906 386.828125 1242.257812 380.171875 1242.257812 370.789062 Z M 1266.183594 370.789062 C 1266.183594 363.96875 1263.070312 359.558594 1256.859375 359.558594 C 1250.503906 359.558594 1247.566406 364.167969 1247.566406 370.789062 C 1247.566406 377.640625 1250.746094 382.078125 1256.859375 382.078125 C 1263.128906 382.054688 1266.183594 377.453125 1266.183594 370.789062 Z M 1266.183594 370.789062 " fill-opacity="1" fill-rule="nonzero"/><path fill="#2b3e4c" d="M 1040.8125 428.730469 C 1040.8125 419.636719 1045.949219 412.757812 1054.375 412.757812 C 1058.1875 412.757812 1061.167969 414.074219 1063.335938 416.347656 L 1063.335938 403.492188 L 1068.359375 403.492188 L 1068.359375 443.921875 L 1063.910156 443.921875 L 1063.910156 440.496094 C 1063.332031 441.1875 1062.683594 441.808594 1061.96875 442.355469 C 1061.25 442.902344 1060.480469 443.359375 1059.65625 443.730469 C 1058.835938 444.097656 1057.980469 444.371094 1057.097656 444.546875 C 1056.210938 444.722656 1055.320312 444.796875 1054.417969 444.765625 C 1045.925781 444.765625 1040.8125 437.832031 1040.8125 428.730469 Z M 1063.894531 428.730469 C 1063.894531 422.023438 1061.085938 417.335938 1055.160156 417.335938 C 1048.984375 417.335938 1046.121094 422.332031 1046.121094 428.730469 C 1046.121094 435.132812 1049.039062 440.171875 1055.023438 440.171875 C 1061.144531 440.191406 1063.894531 435.386719 1063.894531 428.730469 Z M 1063.894531 428.730469 " fill-opacity="1" fill-rule="nonzero"/><path fill="#2b3e4c" d="M 1073.410156 428.960938 C 1073.410156 419.019531 1079.195312 412.757812 1088.03125 412.757812 C 1097.160156 412.757812 1102.492188 419.382812 1102.015625 430.167969 L 1078.777344 430.167969 C 1079.171875 436.453125 1082.425781 440.019531 1088.011719 440.019531 C 1092.003906 440.019531 1095.003906 438.113281 1096.722656 434.6875 L 1101.519531 436.34375 C 1099.136719 441.703125 1094.109375 444.765625 1088.242188 444.765625 C 1079.285156 444.765625 1073.410156 438.449219 1073.410156 428.960938 Z M 1078.859375 426.148438 L 1096.84375 426.148438 C 1096.207031 420.199219 1093.328125 417.25 1088.191406 417.25 C 1082.761719 417.25 1079.589844 420.367188 1078.859375 426.148438 Z M 1078.859375 426.148438 " fill-opacity="1" fill-rule="nonzero"/><path fill="#2b3e4c" d="M 1117.820312 403.492188 L 1122.824219 403.492188 L 1122.824219 443.921875 L 1117.820312 443.921875 Z M 1117.820312 403.492188 " fill-opacity="1" fill-rule="nonzero"/><path fill="#2b3e4c" d="M 1128.421875 435.722656 C 1128.421875 430.949219 1131.257812 428.171875 1135.867188 426.824219 C 1139.679688 425.8125 1144.988281 425.164062 1149.480469 424.546875 C 1149.34375 419.71875 1147.265625 417.417969 1142.011719 417.417969 C 1138.332031 417.417969 1135.390625 419.019531 1134.289062 422.722656 L 1129.546875 421.292969 C 1130.976562 415.988281 1135.21875 412.757812 1142.070312 412.757812 C 1147.542969 412.757812 1151.675781 414.722656 1153.417969 418.683594 C 1154.257812 420.589844 1154.394531 422.78125 1154.394531 425.164062 L 1154.394531 443.921875 L 1149.945312 443.921875 L 1149.945312 439.203125 C 1147.53125 442.910156 1143.769531 444.765625 1138.714844 444.765625 C 1131.929688 444.765625 1128.421875 440.609375 1128.421875 435.722656 Z M 1148.921875 433.59375 C 1149.28125 432.023438 1149.449219 430.429688 1149.425781 428.820312 C 1145.160156 429.378906 1141.058594 429.855469 1138.109375 430.726562 C 1135.613281 431.507812 1133.394531 432.886719 1133.394531 435.722656 C 1133.394531 438.21875 1135.160156 440.609375 1139.488281 440.609375 C 1144.878906 440.585938 1148.191406 437.355469 1148.921875 433.59375 Z M 1148.921875 433.59375 " fill-opacity="1" fill-rule="nonzero"/><path fill="#2b3e4c" d="M 1170.683594 443.921875 L 1170.683594 403.492188 L 1186.664062 403.492188 C 1187.660156 403.492188 1188.652344 403.566406 1189.636719 403.714844 C 1196.183594 404.722656 1199.636719 409.808594 1199.636719 416.242188 C 1199.636719 422.671875 1196.152344 427.75 1189.636719 428.761719 C 1188.652344 428.910156 1187.660156 428.984375 1186.664062 428.984375 L 1175.664062 428.984375 L 1175.664062 443.921875 Z M 1175.683594 424.21875 L 1186.492188 424.21875 C 1187.347656 424.226562 1188.195312 424.140625 1189.035156 423.964844 C 1192.910156 423.09375 1194.539062 419.585938 1194.539062 416.214844 C 1194.539062 412.847656 1192.910156 409.332031 1189.035156 408.460938 C 1188.195312 408.285156 1187.347656 408.203125 1186.492188 408.214844 L 1175.664062 408.214844 Z M 1175.683594 424.21875 " fill-opacity="1" fill-rule="nonzero"/><path fill="#2b3e4c" d="M 1204.132812 443.921875 L 1204.132812 413.597656 L 1208.582031 413.597656 L 1208.582031 418.402344 C 1209.230469 417.234375 1210.089844 416.253906 1211.160156 415.453125 C 1213.496094 413.546875 1217.0625 413.011719 1219.753906 413.597656 L 1219.753906 418.289062 C 1218.570312 417.964844 1217.375 417.902344 1216.164062 418.105469 C 1214.949219 418.304688 1213.835938 418.75 1212.820312 419.4375 C 1209.871094 421.546875 1209.140625 425.113281 1209.140625 428.707031 L 1209.140625 443.921875 Z M 1204.132812 443.921875 " fill-opacity="1" fill-rule="nonzero"/><path fill="#2b3e4c" d="M 1221.734375 428.730469 C 1221.734375 419.195312 1227.453125 412.757812 1236.351562 412.757812 C 1245.457031 412.757812 1250.972656 419.355469 1250.972656 428.730469 C 1250.972656 438.265625 1245.355469 444.765625 1236.351562 444.765625 C 1227.351562 444.765625 1221.734375 438.164062 1221.734375 428.730469 Z M 1245.660156 428.730469 C 1245.660156 421.910156 1242.542969 417.5 1236.335938 417.5 C 1229.976562 417.5 1227.039062 422.109375 1227.039062 428.730469 C 1227.039062 435.582031 1230.21875 440.019531 1236.335938 440.019531 C 1242.601562 440.019531 1245.660156 435.417969 1245.660156 428.730469 Z M 1245.660156 428.730469 " fill-opacity="1" fill-rule="nonzero"/><path fill="#2b3e4c" d="M 1263.097656 443.921875 L 1252.09375 413.597656 L 1257.144531 413.597656 L 1265.652344 437.527344 L 1274.132812 413.570312 L 1279.214844 413.570312 L 1268.207031 443.894531 Z M 1263.097656 443.921875 " fill-opacity="1" fill-rule="nonzero"/><path fill="#2b3e4c" d="M 1283.730469 408.238281 L 1283.730469 403.070312 L 1288.726562 403.070312 L 1288.726562 408.238281 Z M 1283.730469 443.921875 L 1283.730469 413.597656 L 1288.726562 413.597656 L 1288.726562 443.921875 Z M 1283.730469 443.921875 " fill-opacity="1" fill-rule="nonzero"/><path fill="#2b3e4c" d="M 1295.980469 443.921875 L 1295.980469 413.597656 L 1300.472656 413.597656 L 1300.472656 417.5 C 1302.71875 414.5 1306.195312 412.816406 1310.582031 412.816406 C 1320.351562 412.816406 1322.660156 421.402344 1322.660156 427.160156 L 1322.660156 443.921875 L 1317.574219 443.921875 L 1317.574219 428.730469 C 1317.574219 423.011719 1315.742188 417.558594 1309.339844 417.558594 C 1304.3125 417.558594 1301 420.925781 1301 427.949219 L 1301 443.921875 Z M 1295.980469 443.921875 " fill-opacity="1" fill-rule="nonzero"/><path fill="#2b3e4c" d="M 1326.867188 428.761719 C 1326.957031 419.296875 1332.257812 412.738281 1341.386719 412.738281 C 1347.742188 412.738281 1352.699219 416.109375 1354.300781 421.554688 L 1349.363281 423.042969 C 1349.074219 422.210938 1348.667969 421.445312 1348.136719 420.746094 C 1347.605469 420.046875 1346.976562 419.445312 1346.253906 418.945312 C 1345.53125 418.445312 1344.75 418.070312 1343.910156 417.820312 C 1343.066406 417.570312 1342.207031 417.457031 1341.328125 417.480469 C 1335.097656 417.480469 1332.230469 422.171875 1332.175781 428.742188 C 1332.230469 435.511719 1335.296875 440 1341.328125 440 C 1345.261719 440 1347.875 438.148438 1349.25 434.691406 L 1354.300781 436.015625 C 1352.171875 441.683594 1347.589844 444.746094 1341.328125 444.746094 C 1332.089844 444.765625 1326.957031 438.054688 1326.867188 428.761719 Z M 1326.867188 428.761719 " fill-opacity="1" fill-rule="nonzero"/><path fill="#2b3e4c" d="M 1358.65625 408.238281 L 1358.65625 403.070312 L 1363.652344 403.070312 L 1363.652344 408.238281 Z M 1358.65625 443.921875 L 1358.65625 413.597656 L 1363.652344 413.597656 L 1363.652344 443.921875 Z M 1358.65625 443.921875 " fill-opacity="1" fill-rule="nonzero"/><g clip-path="url(#ce210b346e)"><path fill="#2b3e4c" d="M 1369.273438 435.722656 C 1369.273438 430.949219 1372.105469 428.171875 1376.710938 426.824219 C 1380.523438 425.8125 1385.835938 425.164062 1390.332031 424.546875 C 1390.191406 419.71875 1388.113281 417.417969 1382.863281 417.417969 C 1379.183594 417.417969 1376.234375 419.019531 1375.140625 422.722656 L 1370.390625 421.292969 C 1371.828125 415.988281 1376.066406 412.757812 1382.914062 412.757812 C 1388.394531 412.757812 1392.519531 414.722656 1394.261719 418.683594 C 1395.105469 420.589844 1395.246094 422.78125 1395.246094 425.164062 L 1395.246094 443.921875 L 1390.796875 443.921875 L 1390.796875 439.203125 C 1388.378906 442.910156 1384.617188 444.765625 1379.5625 444.765625 C 1372.78125 444.765625 1369.273438 440.609375 1369.273438 435.722656 Z M 1389.765625 433.59375 C 1390.125 432.023438 1390.296875 430.429688 1390.273438 428.820312 C 1386.003906 429.378906 1381.910156 429.855469 1378.960938 430.726562 C 1376.453125 431.507812 1374.238281 432.886719 1374.238281 435.722656 C 1374.238281 438.21875 1376.011719 440.609375 1380.332031 440.609375 C 1385.722656 440.585938 1389.042969 437.355469 1389.765625 433.59375 Z M 1389.765625 433.59375 " fill-opacity="1" fill-rule="nonzero"/></g><path fill="#2b3e4c" d="M 1040.8125 486.695312 C 1040.8125 477.601562 1045.949219 470.722656 1054.375 470.722656 C 1058.1875 470.722656 1061.167969 472.039062 1063.335938 474.316406 L 1063.335938 461.457031 L 1068.359375 461.457031 L 1068.359375 501.886719 L 1063.910156 501.886719 L 1063.910156 498.460938 C 1063.332031 499.15625 1062.683594 499.773438 1061.96875 500.320312 C 1061.25 500.867188 1060.480469 501.324219 1059.65625 501.695312 C 1058.835938 502.066406 1057.980469 502.335938 1057.097656 502.511719 C 1056.210938 502.6875 1055.320312 502.761719 1054.417969 502.730469 C 1045.925781 502.730469 1040.8125 495.796875 1040.8125 486.695312 Z M 1063.894531 486.695312 C 1063.894531 479.992188 1061.085938 475.300781 1055.160156 475.300781 C 1048.984375 475.300781 1046.121094 480.296875 1046.121094 486.695312 C 1046.121094 493.097656 1049.039062 498.136719 1055.023438 498.136719 C 1061.144531 498.15625 1063.894531 493.351562 1063.894531 486.695312 Z M 1063.894531 486.695312 " fill-opacity="1" fill-rule="nonzero"/><path fill="#2b3e4c" d="M 1073.410156 486.925781 C 1073.410156 476.984375 1079.195312 470.722656 1088.03125 470.722656 C 1097.160156 470.722656 1102.492188 477.347656 1102.015625 488.132812 L 1078.777344 488.132812 C 1079.171875 494.417969 1082.425781 497.984375 1088.011719 497.984375 C 1092.003906 497.984375 1095.003906 496.078125 1096.722656 492.652344 L 1101.519531 494.308594 C 1099.136719 499.667969 1094.109375 502.730469 1088.242188 502.730469 C 1079.285156 502.730469 1073.410156 496.414062 1073.410156 486.925781 Z M 1078.859375 484.117188 L 1096.84375 484.117188 C 1096.207031 478.160156 1093.328125 475.21875 1088.191406 475.21875 C 1082.761719 475.21875 1079.589844 478.355469 1078.859375 484.117188 Z M 1078.859375 484.117188 " fill-opacity="1" fill-rule="nonzero"/><path fill="#2b3e4c" d="M 1107.699219 461.457031 L 1112.695312 461.457031 L 1112.695312 501.886719 L 1107.699219 501.886719 Z M 1107.699219 461.457031 " fill-opacity="1" fill-rule="nonzero"/><path fill="#2b3e4c" d="M 1130.105469 501.886719 L 1130.105469 461.457031 L 1135.160156 461.457031 L 1156.253906 493.046875 L 1156.253906 461.457031 L 1161.304688 461.457031 L 1161.304688 501.886719 L 1156.253906 501.886719 L 1135.160156 470.273438 L 1135.160156 501.886719 Z M 1130.105469 501.886719 " fill-opacity="1" fill-rule="nonzero"/><path fill="#2b3e4c" d="M 1166.359375 486.925781 C 1166.359375 476.984375 1172.144531 470.722656 1180.980469 470.722656 C 1190.109375 470.722656 1195.441406 477.347656 1194.964844 488.132812 L 1171.722656 488.132812 C 1172.117188 494.417969 1175.375 497.984375 1180.960938 497.984375 C 1184.945312 497.984375 1187.953125 496.078125 1189.667969 492.652344 L 1194.46875 494.308594 C 1192.078125 499.667969 1187.058594 502.730469 1181.183594 502.730469 C 1172.226562 502.730469 1166.359375 496.414062 1166.359375 486.925781 Z M 1171.808594 484.117188 L 1189.777344 484.117188 C 1189.140625 478.160156 1186.269531 475.21875 1181.132812 475.21875 C 1175.710938 475.21875 1172.539062 478.355469 1171.808594 484.117188 Z M 1171.808594 484.117188 " fill-opacity="1" fill-rule="nonzero"/><path fill="#2b3e4c" d="M 1199.523438 488.328125 L 1199.523438 471.5625 L 1204.609375 471.5625 L 1204.609375 486.753906 C 1204.609375 492.472656 1206.433594 497.925781 1212.839844 497.925781 C 1217.863281 497.925781 1221.179688 494.558594 1221.179688 487.542969 L 1221.179688 471.5625 L 1226.203125 471.5625 L 1226.203125 501.886719 L 1221.75 501.886719 L 1221.75 497.984375 C 1219.507812 500.992188 1216.03125 502.675781 1211.644531 502.675781 C 1201.824219 502.675781 1199.523438 494.09375 1199.523438 488.328125 Z M 1199.523438 488.328125 " fill-opacity="1" fill-rule="nonzero"/><path fill="#2b3e4c" d="M 1231.222656 486.695312 C 1231.222656 477.601562 1236.367188 470.722656 1244.789062 470.722656 C 1248.914062 470.722656 1252.09375 472.292969 1254.324219 474.964844 L 1254.324219 471.5625 L 1258.773438 471.5625 L 1258.773438 515.367188 L 1253.746094 515.367188 L 1253.746094 499.082031 C 1252.582031 500.296875 1251.222656 501.222656 1249.667969 501.859375 C 1248.113281 502.496094 1246.496094 502.785156 1244.8125 502.730469 C 1236.335938 502.730469 1231.222656 495.796875 1231.222656 486.695312 Z M 1254.3125 486.695312 C 1254.3125 479.992188 1251.5 475.300781 1245.578125 475.300781 C 1239.398438 475.300781 1236.53125 480.296875 1236.53125 486.695312 C 1236.53125 493.097656 1239.457031 498.136719 1245.429688 498.136719 C 1251.558594 498.15625 1254.3125 493.351562 1254.3125 486.695312 Z M 1254.3125 486.695312 " fill-opacity="1" fill-rule="nonzero"/><path fill="#2b3e4c" d="M 1264.953125 488.328125 L 1264.953125 471.5625 L 1270.003906 471.5625 L 1270.003906 486.753906 C 1270.003906 492.472656 1271.828125 497.925781 1278.230469 497.925781 C 1283.257812 497.925781 1286.570312 494.558594 1286.570312 487.542969 L 1286.570312 471.5625 L 1291.597656 471.5625 L 1291.597656 501.886719 L 1287.148438 501.886719 L 1287.148438 497.984375 C 1284.898438 500.992188 1281.429688 502.675781 1277.035156 502.675781 C 1267.253906 502.675781 1264.953125 494.09375 1264.953125 488.328125 Z M 1264.953125 488.328125 " fill-opacity="1" fill-rule="nonzero"/><path fill="#2b3e4c" d="M 1296.652344 486.925781 C 1296.652344 476.984375 1302.4375 470.722656 1311.273438 470.722656 C 1320.402344 470.722656 1325.734375 477.347656 1325.289062 488.132812 L 1302.019531 488.132812 C 1302.410156 494.417969 1305.667969 497.984375 1311.253906 497.984375 C 1315.238281 497.984375 1318.277344 496.078125 1319.964844 492.652344 L 1324.761719 494.308594 C 1322.378906 499.667969 1317.351562 502.730469 1311.484375 502.730469 C 1302.519531 502.730469 1296.652344 496.414062 1296.652344 486.925781 Z M 1302.101562 484.117188 L 1320.070312 484.117188 C 1319.433594 478.160156 1316.5625 475.21875 1311.425781 475.21875 C 1305.976562 475.21875 1302.832031 478.355469 1302.101562 484.117188 Z M 1313.503906 457.667969 L 1317.574219 457.667969 L 1313.890625 466.929688 L 1309.824219 466.929688 Z M 1313.503906 457.667969 " fill-opacity="1" fill-rule="nonzero"/><path fill="#2b3e4c" d="M 1329.496094 501.886719 L 1329.496094 471.5625 L 1333.984375 471.5625 L 1333.984375 475.464844 C 1336.234375 472.464844 1339.707031 470.78125 1344.097656 470.78125 C 1353.871094 470.78125 1356.175781 479.367188 1356.175781 485.125 L 1356.175781 501.886719 L 1351.089844 501.886719 L 1351.089844 486.695312 C 1351.089844 480.976562 1349.265625 475.523438 1342.867188 475.523438 C 1337.839844 475.523438 1334.527344 478.890625 1334.527344 485.914062 L 1334.527344 501.886719 Z M 1329.496094 501.886719 " fill-opacity="1" fill-rule="nonzero"/><g clip-path="url(#9ebbbd09e1)"><path fill="#2b3e4c" d="M 951.742188 341.160156 C 950.339844 342.578125 948.734375 343.714844 946.929688 344.566406 C 945.121094 345.417969 943.226562 345.9375 941.238281 346.117188 L 890.339844 338.933594 C 887.867188 338.625 885.390625 338.488281 882.902344 338.523438 C 880.070312 338.472656 877.253906 338.625 874.445312 338.972656 L 828.734375 345.457031 C 823.179688 342.765625 817.929688 340.703125 812.894531 343.550781 C 812.648438 343.6875 812.382812 343.726562 812.105469 343.667969 C 811.828125 343.609375 811.605469 343.464844 811.433594 343.238281 C 811.265625 343.011719 811.191406 342.753906 811.214844 342.472656 C 811.234375 342.1875 811.347656 341.949219 811.554688 341.75 C 817.953125 335.589844 824.589844 336.425781 831.015625 337.230469 C 835.695312 337.816406 840.175781 338.375 844.53125 336.238281 C 839.816406 334.734375 836.171875 330.582031 832.625 326.535156 C 828.03125 321.277344 823.6875 316.320312 817.332031 317.082031 C 817.183594 317.121094 817.035156 317.125 816.886719 317.101562 C 816.734375 317.078125 816.59375 317.027344 816.464844 316.949219 C 816.335938 316.871094 816.226562 316.769531 816.136719 316.648438 C 816.046875 316.527344 815.984375 316.390625 815.949219 316.242188 C 815.910156 316.097656 815.90625 315.949219 815.925781 315.796875 C 815.949219 315.648438 816 315.507812 816.078125 315.378906 C 816.15625 315.25 816.257812 315.136719 816.378906 315.046875 C 816.503906 314.957031 816.636719 314.894531 816.785156 314.859375 C 825.046875 311.617188 830.863281 314.929688 836.492188 318.125 C 840.589844 320.457031 844.527344 322.6875 849.363281 322.382812 C 845.550781 319.207031 843.808594 313.960938 842.078125 308.867188 C 839.835938 302.25 837.722656 296 831.558594 294.246094 C 831.285156 294.167969 831.074219 294.007812 830.917969 293.769531 C 830.765625 293.53125 830.710938 293.273438 830.753906 292.992188 C 830.792969 292.710938 830.921875 292.480469 831.140625 292.296875 C 831.355469 292.113281 831.605469 292.023438 831.886719 292.027344 C 840.789062 292.195312 844.875 297.480469 848.839844 302.585938 C 851.742188 306.316406 854.519531 309.882812 859.101562 311.445312 C 856.832031 307.046875 857.195312 301.535156 857.550781 296.191406 C 858.015625 289.199219 858.445312 282.648438 853.414062 278.695312 C 853.203125 278.511719 853.078125 278.285156 853.035156 278.015625 C 852.992188 277.742188 853.042969 277.488281 853.1875 277.253906 C 853.328125 277.015625 853.53125 276.855469 853.792969 276.765625 C 854.054688 276.679688 854.3125 276.6875 854.570312 276.789062 C 862.707031 280.339844 864.472656 286.792969 866.1875 293.03125 C 867.460938 297.582031 868.644531 301.929688 872.277344 305.109375 C 871.867188 300.175781 874.308594 295.226562 876.691406 290.402344 C 879.785156 284.140625 882.703125 278.230469 879.570312 272.648438 C 879.46875 272.40625 879.453125 272.160156 879.523438 271.90625 C 879.59375 271.65625 879.734375 271.453125 879.945312 271.296875 C 880.160156 271.144531 880.394531 271.070312 880.65625 271.082031 C 880.921875 271.089844 881.152344 271.183594 881.351562 271.351562 C 887.507812 277.746094 886.675781 284.390625 885.871094 290.808594 C 885.285156 295.492188 884.726562 299.972656 886.859375 304.328125 C 888.386719 299.605469 892.539062 295.96875 896.605469 292.421875 C 901.863281 287.828125 906.820312 283.480469 906.058594 277.125 C 906.027344 276.84375 906.09375 276.585938 906.253906 276.355469 C 906.414062 276.125 906.632812 275.972656 906.90625 275.902344 C 907.179688 275.835938 907.445312 275.863281 907.695312 275.992188 C 907.949219 276.121094 908.125 276.316406 908.234375 276.578125 C 911.472656 284.839844 908.164062 290.664062 904.964844 296.28125 C 902.632812 300.386719 900.394531 304.316406 900.707031 309.152344 C 903.882812 305.335938 909.128906 303.597656 914.226562 301.867188 C 920.824219 299.605469 927.066406 297.515625 928.796875 291.34375 C 928.875 291.070312 929.03125 290.859375 929.269531 290.707031 C 929.507812 290.550781 929.765625 290.496094 930.046875 290.535156 C 930.328125 290.578125 930.558594 290.707031 930.742188 290.921875 C 930.925781 291.136719 931.015625 291.382812 931.015625 291.667969 C 930.84375 300.566406 925.566406 304.652344 920.457031 308.617188 C 916.726562 311.515625 913.160156 314.292969 911.59375 318.882812 C 915.992188 316.605469 921.503906 316.976562 926.851562 317.324219 C 933.8125 317.789062 940.398438 318.226562 944.351562 313.195312 C 944.53125 312.988281 944.757812 312.863281 945.027344 312.824219 C 945.296875 312.78125 945.550781 312.832031 945.785156 312.972656 C 946.019531 313.113281 946.183594 313.3125 946.269531 313.570312 C 946.359375 313.832031 946.355469 314.089844 946.257812 314.34375 C 942.75 322.484375 936.296875 324.265625 930.054688 325.976562 C 925.503906 327.246094 921.15625 328.429688 917.945312 332.0625 C 922.878906 331.652344 927.832031 334.097656 932.65625 336.476562 C 938.910156 339.5625 944.816406 342.476562 950.390625 339.339844 C 950.636719 339.203125 950.898438 339.160156 951.175781 339.21875 C 951.457031 339.28125 951.679688 339.425781 951.847656 339.652344 C 952.023438 339.882812 952.101562 340.136719 952.082031 340.425781 C 952.0625 340.710938 951.949219 340.957031 951.742188 341.160156 Z M 951.742188 341.160156 " fill-opacity="1" fill-rule="evenodd"/></g><path fill="#2b3e4c" d="M 824.007812 430.332031 L 820.238281 431.484375 L 818.941406 435.226562 L 817.789062 431.457031 L 814.046875 430.152344 L 817.820312 429.003906 L 819.117188 425.261719 L 820.269531 429.03125 Z M 824.007812 430.332031 " fill-opacity="1" fill-rule="nonzero"/><path fill="#2b3e4c" d="M 824.101562 415.300781 L 820.332031 416.445312 L 819.027344 420.1875 L 817.882812 416.414062 L 814.140625 415.117188 L 817.910156 413.964844 L 819.214844 410.222656 L 820.363281 413.996094 Z M 824.101562 415.300781 " fill-opacity="1" fill-rule="nonzero"/><path fill="#2b3e4c" d="M 827.8125 401.347656 L 824.042969 402.5 L 822.742188 406.242188 L 821.589844 402.46875 L 817.851562 401.164062 L 821.621094 400.019531 L 822.925781 396.277344 L 824.070312 400.046875 Z M 827.8125 401.347656 " fill-opacity="1" fill-rule="nonzero"/><path fill="#2b3e4c" d="M 832.976562 387.9375 L 829.207031 389.089844 L 827.910156 392.832031 L 826.757812 389.0625 L 823.019531 387.761719 L 826.785156 386.609375 L 828.085938 382.871094 L 829.238281 386.640625 Z M 832.976562 387.9375 " fill-opacity="1" fill-rule="nonzero"/><path fill="#2b3e4c" d="M 842.667969 376.980469 L 838.898438 378.132812 L 837.597656 381.867188 L 836.445312 378.101562 L 832.707031 376.804688 L 836.484375 375.652344 L 837.78125 371.910156 L 838.929688 375.679688 Z M 842.667969 376.980469 " fill-opacity="1" fill-rule="nonzero"/><path fill="#2b3e4c" d="M 853.90625 368.558594 L 850.132812 369.703125 L 848.828125 373.445312 L 847.683594 369.679688 L 843.945312 368.375 L 847.714844 367.226562 L 849.019531 363.488281 L 850.164062 367.257812 Z M 853.90625 368.558594 " fill-opacity="1" fill-rule="nonzero"/><path fill="#2b3e4c" d="M 866.050781 362.667969 L 862.273438 363.816406 L 860.976562 367.5625 L 859.824219 363.792969 L 856.082031 362.488281 L 859.851562 361.339844 L 861.15625 357.597656 L 862.304688 361.363281 Z M 866.050781 362.667969 " fill-opacity="1" fill-rule="nonzero"/><path fill="#2b3e4c" d="M 880.542969 358.957031 L 876.765625 360.105469 L 875.46875 363.84375 L 874.320312 360.074219 L 870.582031 358.777344 L 874.351562 357.628906 L 875.652344 353.882812 L 876.796875 357.660156 Z M 880.542969 358.957031 " fill-opacity="1" fill-rule="nonzero"/><path fill="#2b3e4c" d="M 844.539062 525.542969 L 843.84375 525.238281 L 832.230469 520.386719 C 830.550781 519.738281 828.832031 519.214844 827.078125 518.820312 C 822.828125 518.246094 821.125 519.148438 819.1875 520.230469 C 818.265625 520.738281 819.230469 521.304688 819.230469 521.304688 C 819.230469 521.304688 833.695312 527.449219 834.273438 527.558594 C 835.074219 527.816406 835.894531 528.015625 836.726562 528.148438 C 840.984375 528.652344 842.667969 527.71875 844.589844 526.609375 C 845.515625 526.097656 844.539062 525.542969 844.539062 525.542969 Z M 844.539062 525.542969 " fill-opacity="1" fill-rule="evenodd"/><path fill="#2b3e4c" d="M 817.515625 513.855469 L 816.824219 513.570312 L 805.222656 508.710938 C 803.539062 508.0625 801.820312 507.535156 800.058594 507.136719 C 795.8125 506.566406 794.117188 507.472656 792.171875 508.554688 C 791.25 509.0625 792.222656 509.628906 792.222656 509.628906 C 792.222656 509.628906 806.683594 515.773438 807.261719 515.882812 C 808.066406 516.140625 808.882812 516.335938 809.714844 516.472656 C 813.96875 516.976562 815.660156 516.042969 817.578125 514.933594 C 818.496094 514.433594 817.515625 513.855469 817.515625 513.855469 Z M 817.515625 513.855469 " fill-opacity="1" fill-rule="evenodd"/><g clip-path="url(#ca341f4dc0)"><path fill="#2b3e4c" d="M 872.03125 536.136719 L 871.339844 535.851562 L 863.894531 532.746094 L 863.1875 532.453125 L 862.488281 532.160156 L 859.738281 530.996094 C 858.058594 530.34375 856.339844 529.820312 854.582031 529.421875 C 850.328125 528.847656 848.632812 529.757812 846.6875 530.835938 C 845.769531 531.347656 846.738281 531.910156 846.738281 531.910156 C 846.738281 531.910156 861.199219 538.058594 861.777344 538.164062 L 862.792969 538.453125 C 863.0625 538.523438 863.316406 538.585938 863.558594 538.636719 C 863.800781 538.6875 864.035156 538.730469 864.230469 538.757812 L 864.300781 538.757812 C 868.507812 539.238281 870.1875 538.3125 872.09375 537.207031 C 873.011719 536.679688 872.03125 536.136719 872.03125 536.136719 Z M 872.03125 536.136719 " fill-opacity="1" fill-rule="evenodd"/></g><path fill="#2b3e4c" d="M 797.359375 501.195312 L 797.824219 500.992188 L 797.707031 500.496094 C 796.671875 495.980469 791.726562 493.503906 791.515625 493.40625 L 776.34375 485.972656 C 773.800781 484.617188 771.964844 485.710938 771.164062 487.078125 C 770.277344 488.578125 770.316406 490.828125 771.917969 491.855469 L 788.261719 500.589844 C 790.4375 501.164062 792.648438 501.496094 794.898438 501.582031 C 795.742188 501.613281 796.5625 501.484375 797.359375 501.195312 Z M 797.359375 501.195312 " fill-opacity="1" fill-rule="evenodd"/><g clip-path="url(#ccd0aa1f44)"><path fill="#2b3e4c" d="M 997.386719 360.882812 C 996.679688 359.832031 995.789062 358.976562 994.714844 358.3125 C 993.640625 357.648438 992.476562 357.234375 991.226562 357.066406 L 890.332031 342.824219 C 887.863281 342.515625 885.382812 342.378906 882.894531 342.40625 C 880.40625 342.378906 877.925781 342.515625 875.457031 342.824219 L 774.558594 357.085938 C 773.9375 357.164062 773.335938 357.308594 772.746094 357.515625 C 772.160156 357.722656 771.597656 357.988281 771.066406 358.316406 C 770.539062 358.644531 770.046875 359.023438 769.597656 359.457031 C 769.148438 359.886719 768.75 360.363281 768.402344 360.882812 C 768.054688 361.398438 767.765625 361.945312 767.535156 362.527344 C 767.304688 363.105469 767.136719 363.703125 767.035156 364.320312 C 766.933594 364.933594 766.898438 365.550781 766.925781 366.175781 C 766.957031 366.796875 767.054688 367.410156 767.214844 368.011719 L 793.082031 471.117188 L 798.851562 494.125 C 799.992188 498.671875 804.269531 503.660156 808.585938 505.453125 L 857.09375 525.792969 L 862.910156 528.230469 L 863.582031 528.523438 L 864.261719 528.804688 L 868.160156 530.4375 L 875.394531 533.5 C 877.578125 534.347656 879.84375 534.789062 882.1875 534.816406 L 883.59375 534.816406 C 885.941406 534.789062 888.207031 534.347656 890.394531 533.5 L 897.628906 530.460938 L 901.519531 528.828125 L 902.199219 528.550781 L 902.878906 528.257812 L 908.691406 525.816406 L 957.203125 505.476562 C 961.519531 503.667969 965.796875 498.695312 966.9375 494.152344 L 972.703125 471.144531 L 998.574219 368.039062 C 998.902344 366.816406 998.960938 365.582031 998.753906 364.332031 C 998.546875 363.082031 998.089844 361.933594 997.386719 360.882812 Z M 825.574219 504.265625 L 824.894531 503.957031 L 813.382812 498.875 C 811.753906 498.105469 810.191406 497.21875 808.691406 496.21875 C 805.347656 493.535156 804.839844 491.671875 804.289062 489.519531 C 804.019531 488.5 805.101562 488.8125 805.101562 488.8125 C 805.101562 488.8125 819.511719 495.078125 819.988281 495.429688 C 820.730469 495.828125 821.4375 496.28125 822.105469 496.796875 C 825.40625 499.535156 825.882812 501.402344 826.402344 503.558594 C 826.644531 504.585938 825.574219 504.265625 825.574219 504.265625 Z M 852.183594 516.910156 L 851.5 516.605469 L 839.988281 511.523438 C 838.355469 510.753906 836.792969 509.871094 835.296875 508.867188 C 831.957031 506.183594 831.445312 504.320312 830.890625 502.171875 C 830.625 501.148438 831.703125 501.46875 831.703125 501.46875 C 831.703125 501.46875 846.113281 507.726562 846.589844 508.078125 C 847.332031 508.480469 848.035156 508.933594 848.707031 509.445312 C 852 512.191406 852.484375 514.058594 853.003906 516.210938 C 853.257812 517.242188 852.183594 516.90625 852.183594 516.90625 Z M 864.027344 504.726562 C 861.25 502.71875 857.328125 501.054688 853.082031 499.40625 C 853.082031 499.40625 852.097656 498.949219 851.808594 498.773438 C 846.878906 496.082031 842.5625 492.671875 839.960938 487.476562 C 838.945312 485.457031 838.054688 483.371094 837.144531 481.289062 C 836.371094 479.496094 835.59375 477.707031 834.722656 475.972656 C 833.753906 474.011719 833.238281 471.9375 833.171875 469.75 C 833.113281 467.960938 833.230469 466.183594 833.527344 464.417969 C 833.953125 461.667969 834.316406 458.902344 834.570312 456.15625 C 834.730469 454.390625 834.570312 452.597656 834.660156 450.824219 C 834.71875 449.550781 835.542969 449 836.679688 449.640625 C 837.511719 450.144531 838.195312 450.796875 838.734375 451.605469 C 839.910156 453.339844 840.007812 455.386719 840.070312 457.410156 C 840.109375 458.46875 840.160156 459.523438 840.210938 460.585938 L 840.210938 466.472656 C 836.203125 468.117188 841.765625 476.386719 842.839844 477.828125 C 843.761719 479.191406 847.207031 483.398438 848.074219 484.082031 C 848.890625 484.980469 849.503906 485.609375 849.738281 485.863281 C 849.914062 486.039062 850.125 486.113281 850.375 486.09375 C 850.5625 486.0625 850.714844 485.976562 850.835938 485.832031 C 850.988281 485.679688 851.066406 485.5 851.066406 485.285156 C 851.066406 485.070312 850.988281 484.890625 850.835938 484.738281 C 845.492188 479.242188 842.667969 475.203125 841.257812 472.527344 C 840.875 471.851562 840.578125 471.140625 840.363281 470.394531 C 839.785156 468.042969 841.792969 467.011719 844.023438 468.449219 L 844.269531 468.621094 C 844.882812 469.019531 845.457031 469.464844 845.992188 469.960938 C 848.671875 472.503906 851.714844 474.644531 854.402344 477.1875 C 856.347656 479.003906 858.089844 480.613281 860.632812 481.757812 C 860.632812 481.757812 864.449219 483.027344 866.277344 483.511719 C 869.628906 484.375 872.839844 485.597656 875.914062 487.183594 C 876.492188 487.648438 877.757812 488.703125 877.90625 488.742188 C 875.414062 491.429688 873.386719 494.425781 871.816406 497.734375 C 870.082031 501.226562 868.617188 504.828125 867.421875 508.542969 C 867.199219 508.046875 866.921875 507.582031 866.597656 507.148438 C 866.5625 507.109375 866.53125 507.066406 866.496094 507.027344 C 865.777344 506.148438 864.953125 505.378906 864.027344 504.722656 Z M 872.054688 446.8125 C 871.242188 447.246094 867.414062 448.898438 865.554688 444.632812 L 862.46875 438.632812 C 862.230469 438.210938 861.890625 437.902344 861.453125 437.699219 C 861.011719 437.5 860.554688 437.445312 860.082031 437.539062 L 847.367188 440.628906 C 846.476562 440.839844 845.566406 440.699219 845.34375 440.304688 C 845.121094 439.910156 845.535156 439.140625 846.265625 438.582031 L 879.816406 413.074219 L 879.855469 487.140625 C 879.253906 487.558594 878.691406 488.023438 878.171875 488.539062 L 878.171875 443.585938 Z M 860.898438 480.15625 C 860.796875 480.542969 856.628906 477.238281 855.066406 475.664062 C 854.925781 475.523438 854.625 466.199219 854.5 462.1875 C 854.460938 461.195312 855.136719 460.714844 856.003906 461.246094 C 856.867188 461.710938 857.523438 462.378906 857.976562 463.242188 C 858.691406 464.964844 859.148438 466.753906 859.34375 468.605469 C 859.460938 471.558594 859.746094 474.496094 860.195312 477.417969 C 860.363281 478.34375 860.597656 479.257812 860.898438 480.148438 Z M 853.8125 474.5625 C 852.019531 472.929688 850 471.300781 848.421875 469.820312 C 848.148438 469.566406 848.191406 468.894531 848.179688 468.511719 C 848.015625 464.195312 847.894531 459.878906 847.742188 455.566406 C 847.699219 454.136719 848.378906 453.660156 849.699219 454.292969 C 850.308594 454.585938 850.820312 454.992188 851.238281 455.519531 C 851.660156 456.046875 851.941406 456.636719 852.089844 457.292969 C 852.554688 459.359375 852.875 461.449219 853.050781 463.5625 C 853.328125 467.019531 853.628906 470.863281 853.8125 474.554688 Z M 846.324219 459.027344 C 846.523438 462.09375 846.839844 465.449219 846.960938 468.695312 C 845.25 467.425781 844.246094 466.695312 841.441406 466.25 C 841.441406 466.136719 841.0625 454.808594 840.953125 452.519531 C 840.871094 450.824219 841.804688 450.179688 843.261719 451.089844 C 844.050781 451.644531 844.6875 452.339844 845.167969 453.175781 C 846.300781 454.953125 846.191406 457.039062 846.324219 459.027344 Z M 897.597656 528.085938 L 894.996094 529.179688 C 892.316406 509.125 889.238281 500.101562 888.367188 500.101562 C 887.867188 500.101562 889.8125 502.765625 893.410156 529.847656 L 890.363281 531.117188 C 888.1875 531.964844 885.933594 532.398438 883.601562 532.425781 C 883.652344 527.976562 883.644531 523.8125 883.636719 522.148438 C 883.636719 521.945312 883.566406 521.773438 883.421875 521.628906 C 883.277344 521.484375 883.105469 521.410156 882.902344 521.410156 C 882.699219 521.410156 882.523438 521.484375 882.378906 521.628906 C 882.234375 521.773438 882.164062 521.945312 882.164062 522.148438 C 882.164062 523.8125 882.164062 527.984375 882.195312 532.425781 C 879.863281 532.398438 877.605469 531.964844 875.433594 531.117188 L 872.386719 529.847656 C 875.984375 502.765625 877.929688 500.101562 877.429688 500.101562 C 876.558594 500.101562 873.472656 509.125 870.796875 529.179688 L 868.191406 528.085938 L 864.613281 526.585938 C 864.722656 525.90625 864.835938 525.238281 864.949219 524.5625 C 865.019531 524.15625 865.101562 523.75 865.171875 523.335938 C 865.222656 523.082031 865.265625 522.824219 865.316406 522.5625 C 865.402344 522.128906 865.488281 521.703125 865.574219 521.292969 C 865.625 521.054688 865.667969 520.820312 865.710938 520.59375 C 865.800781 520.171875 865.898438 519.765625 865.984375 519.351562 C 866.035156 519.109375 866.085938 518.863281 866.144531 518.621094 L 866.410156 517.484375 C 866.476562 517.21875 866.539062 516.945312 866.609375 516.675781 C 866.679688 516.410156 866.773438 516.003906 866.863281 515.671875 C 866.953125 515.34375 867.015625 515.035156 867.097656 514.738281 L 867.328125 513.90625 C 867.429688 513.535156 867.523438 513.175781 867.625 512.8125 C 867.6875 512.597656 867.753906 512.386719 867.808594 512.175781 L 868.191406 510.90625 C 869.480469 506.601562 871.121094 502.4375 873.117188 498.410156 C 875.261719 494.175781 877.308594 491.367188 879.074219 489.640625 C 879.234375 489.472656 879.398438 489.328125 879.558594 489.179688 C 879.714844 489.035156 879.746094 489.015625 879.84375 488.933594 C 880.703125 488.105469 881.71875 487.59375 882.894531 487.390625 C 884.074219 487.589844 885.09375 488.105469 885.953125 488.933594 L 886.238281 489.179688 C 886.398438 489.328125 886.554688 489.472656 886.722656 489.640625 C 888.488281 491.367188 890.535156 494.175781 892.675781 498.410156 C 894.675781 502.433594 896.316406 506.601562 897.605469 510.90625 C 897.730469 511.332031 897.859375 511.761719 897.980469 512.175781 C 898.042969 512.378906 898.105469 512.589844 898.164062 512.8125 C 898.269531 513.175781 898.375 513.535156 898.46875 513.90625 C 898.5625 514.273438 898.621094 514.457031 898.699219 514.738281 C 898.773438 515.019531 898.855469 515.375 898.9375 515.671875 C 899.023438 515.972656 899.105469 516.339844 899.191406 516.675781 L 899.382812 517.484375 C 899.472656 517.867188 899.566406 518.242188 899.652344 518.621094 C 899.707031 518.863281 899.757812 519.109375 899.808594 519.351562 C 899.90625 519.765625 899.992188 520.171875 900.078125 520.59375 C 900.128906 520.820312 900.171875 521.054688 900.222656 521.292969 C 900.3125 521.71875 900.394531 522.144531 900.476562 522.5625 C 900.527344 522.824219 900.574219 523.082031 900.625 523.335938 C 900.691406 523.75 900.769531 524.15625 900.847656 524.5625 C 900.960938 525.238281 901.074219 525.90625 901.175781 526.585938 Z M 920.480469 440.296875 C 920.257812 440.691406 919.351562 440.832031 918.460938 440.621094 L 905.746094 437.535156 C 905.273438 437.4375 904.816406 437.492188 904.375 437.695312 C 903.933594 437.894531 903.59375 438.207031 903.355469 438.625 L 900.273438 444.625 C 898.40625 448.890625 894.585938 447.238281 893.769531 446.808594 L 887.667969 443.585938 L 887.667969 488.53125 C 887.144531 488.019531 886.585938 487.554688 885.984375 487.132812 L 886.023438 413.070312 L 919.574219 438.574219 C 920.273438 439.136719 920.683594 439.910156 920.460938 440.296875 Z M 920.617188 453.175781 C 921.097656 452.339844 921.734375 451.644531 922.523438 451.089844 C 923.976562 450.179688 924.914062 450.824219 924.828125 452.519531 C 924.722656 454.828125 924.351562 466.136719 924.339844 466.25 C 921.535156 466.695312 920.527344 467.457031 918.816406 468.695312 C 918.96875 465.449219 919.292969 462.09375 919.488281 459.027344 C 919.597656 457.039062 919.488281 454.953125 920.597656 453.175781 Z M 918.074219 455.558594 C 917.925781 459.875 917.804688 464.191406 917.640625 468.503906 C 917.640625 468.886719 917.640625 469.5625 917.398438 469.816406 C 915.835938 471.296875 913.800781 472.921875 912.003906 474.554688 C 912.191406 470.863281 912.492188 467.019531 912.765625 463.574219 C 912.945312 461.460938 913.269531 459.375 913.730469 457.304688 C 913.878906 456.648438 914.160156 456.058594 914.582031 455.53125 C 915 455.003906 915.511719 454.597656 916.121094 454.304688 C 917.398438 453.660156 918.089844 454.128906 918.046875 455.558594 Z M 911.320312 462.179688 C 911.195312 466.191406 910.890625 475.527344 910.757812 475.65625 C 909.191406 477.230469 905.035156 480.539062 904.921875 480.148438 C 905.21875 479.253906 905.457031 478.339844 905.625 477.410156 C 906.074219 474.488281 906.359375 471.554688 906.476562 468.601562 C 906.671875 466.746094 907.128906 464.957031 907.84375 463.238281 C 908.296875 462.371094 908.953125 461.707031 909.808594 461.242188 C 910.636719 460.707031 911.328125 461.191406 911.296875 462.179688 Z M 901.785156 504.722656 C 900.851562 505.371094 900.023438 506.132812 899.292969 507.007812 C 899.257812 507.046875 899.226562 507.09375 899.191406 507.128906 C 898.867188 507.5625 898.589844 508.027344 898.367188 508.523438 C 897.175781 504.808594 895.710938 501.207031 893.972656 497.71875 C 892.402344 494.414062 890.371094 491.425781 887.882812 488.742188 C 888.023438 488.703125 889.296875 487.648438 889.875 487.183594 C 892.949219 485.597656 896.160156 484.371094 899.511719 483.511719 C 901.359375 483.023438 905.136719 481.765625 905.15625 481.757812 C 907.699219 480.613281 909.441406 479.003906 911.386719 477.1875 C 914.09375 474.644531 917.105469 472.527344 919.796875 469.960938 C 920.332031 469.464844 920.90625 469.019531 921.519531 468.621094 L 921.765625 468.449219 C 923.996094 467.011719 926 468.042969 925.425781 470.394531 C 925.207031 471.140625 924.910156 471.851562 924.53125 472.527344 C 923.121094 475.203125 920.292969 479.242188 914.953125 484.738281 C 914.800781 484.890625 914.722656 485.070312 914.722656 485.285156 C 914.722656 485.5 914.800781 485.679688 914.953125 485.832031 C 915.078125 485.960938 915.230469 486.03125 915.410156 486.046875 C 915.65625 486.070312 915.867188 485.992188 916.042969 485.820312 C 916.28125 485.566406 916.890625 484.933594 917.710938 484.039062 C 918.574219 483.351562 922.019531 479.144531 922.933594 477.785156 C 924.015625 476.34375 929.578125 468.074219 925.566406 466.425781 L 925.605469 460.542969 C 925.65625 459.488281 925.699219 458.429688 925.746094 457.363281 C 925.820312 455.34375 925.902344 453.296875 927.082031 451.5625 C 927.617188 450.753906 928.296875 450.097656 929.128906 449.597656 C 930.265625 448.960938 931.097656 449.484375 931.15625 450.777344 C 931.226562 452.550781 931.085938 454.34375 931.238281 456.113281 C 931.492188 458.882812 931.875 461.648438 932.28125 464.375 C 932.578125 466.140625 932.699219 467.917969 932.640625 469.707031 C 932.570312 471.894531 932.050781 473.96875 931.085938 475.929688 C 930.21875 477.664062 929.445312 479.449219 928.667969 481.242188 C 927.761719 483.328125 926.871094 485.414062 925.851562 487.433594 C 923.253906 492.625 918.9375 496.039062 913.996094 498.726562 C 913.707031 498.894531 912.726562 499.363281 912.726562 499.363281 C 908.46875 501.046875 904.539062 502.710938 901.769531 504.722656 Z M 934.917969 502.179688 C 934.363281 504.328125 933.851562 506.191406 930.511719 508.871094 C 929.015625 509.875 927.453125 510.757812 925.820312 511.527344 L 914.308594 516.613281 L 913.628906 516.917969 C 913.628906 516.917969 912.554688 517.253906 912.804688 516.226562 C 913.324219 514.070312 913.800781 512.203125 917.101562 509.457031 C 917.769531 508.949219 918.472656 508.492188 919.210938 508.089844 C 919.695312 507.742188 934.105469 501.480469 934.105469 501.480469 C 934.105469 501.480469 935.164062 501.148438 934.898438 502.171875 Z M 961.507812 489.519531 C 960.953125 491.671875 960.441406 493.535156 957.101562 496.21875 C 955.605469 497.21875 954.042969 498.105469 952.410156 498.875 L 940.894531 503.957031 L 940.214844 504.265625 C 940.214844 504.265625 939.140625 504.59375 939.386719 503.566406 C 939.902344 501.410156 940.382812 499.542969 943.675781 496.800781 C 944.347656 496.289062 945.058594 495.835938 945.800781 495.433594 C 946.277344 495.085938 960.6875 488.820312 960.6875 488.820312 C 960.6875 488.820312 961.773438 488.5 961.507812 489.519531 Z M 993.832031 366.851562 L 967.636719 470.738281 L 885.992188 406.707031 L 885.992188 392.089844 L 886.21875 392.089844 L 888.125 397.480469 C 888.296875 397.738281 888.527344 397.914062 888.824219 398 C 889.121094 398.089844 889.410156 398.074219 889.695312 397.953125 C 889.976562 397.828125 890.191406 397.628906 890.328125 397.351562 C 890.464844 397.078125 890.5 396.789062 890.425781 396.488281 L 888.589844 392.933594 L 897.640625 399.0625 C 897.785156 399.140625 897.941406 399.191406 898.105469 399.210938 C 898.269531 399.234375 898.429688 399.222656 898.589844 399.179688 C 898.75 399.136719 898.894531 399.066406 899.027344 398.964844 C 899.160156 398.867188 899.265625 398.746094 899.351562 398.605469 C 899.433594 398.460938 899.484375 398.304688 899.507812 398.140625 C 899.527344 397.976562 899.519531 397.8125 899.476562 397.652344 C 899.433594 397.492188 899.363281 397.347656 899.261719 397.214844 C 899.164062 397.082031 899.042969 396.972656 898.902344 396.886719 L 894.382812 394.695312 L 904.820312 398.394531 C 905.078125 398.464844 905.339844 398.484375 905.605469 398.453125 C 905.871094 398.417969 906.121094 398.335938 906.351562 398.203125 C 906.585938 398.074219 906.785156 397.902344 906.949219 397.691406 C 907.113281 397.480469 907.230469 397.246094 907.300781 396.988281 C 907.375 396.730469 907.394531 396.464844 907.359375 396.199219 C 907.328125 395.933594 907.246094 395.6875 907.113281 395.453125 C 906.980469 395.21875 906.808594 395.023438 906.597656 394.859375 C 906.386719 394.691406 906.152344 394.574219 905.894531 394.503906 L 898.117188 392.929688 L 903.03125 393.277344 C 903.308594 393.292969 903.578125 393.253906 903.839844 393.15625 C 904.101562 393.0625 904.332031 392.917969 904.535156 392.726562 C 904.738281 392.539062 904.890625 392.3125 905.003906 392.058594 C 905.113281 391.804688 905.167969 391.539062 905.167969 391.257812 C 905.167969 390.980469 905.113281 390.714844 905.003906 390.460938 C 904.890625 390.203125 904.738281 389.980469 904.535156 389.789062 C 904.332031 389.601562 904.101562 389.457031 903.839844 389.363281 C 903.578125 389.265625 903.308594 389.226562 903.03125 389.242188 L 891.273438 390.074219 L 899.566406 387.113281 C 899.792969 386.890625 899.964844 386.632812 900.085938 386.339844 C 900.203125 386.046875 900.265625 385.742188 900.265625 385.429688 C 900.265625 385.113281 900.203125 384.808594 900.085938 384.515625 C 899.964844 384.226562 899.792969 383.96875 899.566406 383.742188 L 884.625 374.457031 C 884.167969 374.023438 883.625 373.8125 882.996094 373.824219 L 882.800781 373.824219 C 882.167969 373.8125 881.628906 374.023438 881.171875 374.457031 L 866.222656 383.757812 C 866 383.984375 865.832031 384.242188 865.714844 384.535156 C 865.597656 384.828125 865.539062 385.132812 865.542969 385.449219 C 865.546875 385.761719 865.609375 386.066406 865.730469 386.355469 C 865.855469 386.648438 866.027344 386.902344 866.253906 387.125 L 874.546875 390.085938 L 862.78125 389.253906 C 862.523438 389.269531 862.277344 389.332031 862.042969 389.4375 C 861.808594 389.546875 861.605469 389.695312 861.425781 389.882812 C 861.25 390.070312 861.113281 390.285156 861.015625 390.523438 C 860.921875 390.765625 860.875 391.015625 860.875 391.273438 C 860.875 391.53125 860.921875 391.78125 861.015625 392.019531 C 861.113281 392.257812 861.25 392.472656 861.425781 392.660156 C 861.605469 392.847656 861.808594 392.996094 862.042969 393.105469 C 862.277344 393.214844 862.523438 393.277344 862.78125 393.289062 L 867.695312 392.941406 L 859.921875 394.515625 C 859.675781 394.597656 859.453125 394.722656 859.257812 394.890625 C 859.058594 395.058594 858.898438 395.257812 858.777344 395.484375 C 858.65625 395.714844 858.578125 395.957031 858.550781 396.214844 C 858.523438 396.472656 858.542969 396.726562 858.613281 396.976562 C 858.683594 397.226562 858.796875 397.453125 858.953125 397.660156 C 859.109375 397.863281 859.300781 398.035156 859.523438 398.167969 C 859.746094 398.300781 859.984375 398.386719 860.238281 398.429688 C 860.496094 398.472656 860.75 398.464844 861.003906 398.40625 L 871.441406 394.707031 L 866.921875 396.902344 C 866.671875 397.097656 866.515625 397.351562 866.457031 397.664062 C 866.398438 397.972656 866.449219 398.265625 866.609375 398.539062 C 866.769531 398.8125 867 399.003906 867.300781 399.101562 C 867.601562 399.203125 867.898438 399.195312 868.191406 399.074219 L 877.242188 392.945312 L 875.398438 396.5 C 875.324219 396.804688 875.351562 397.09375 875.492188 397.375 C 875.628906 397.65625 875.84375 397.859375 876.128906 397.980469 C 876.417969 398.105469 876.710938 398.121094 877.007812 398.027344 C 877.308594 397.933594 877.539062 397.757812 877.707031 397.492188 L 879.613281 392.101562 L 879.84375 392.101562 L 879.84375 406.71875 L 798.152344 470.738281 L 771.957031 366.824219 C 771.875 366.554688 771.824219 366.277344 771.804688 365.996094 C 771.785156 365.714844 771.796875 365.433594 771.839844 365.15625 C 771.882812 364.878906 771.953125 364.605469 772.054688 364.34375 C 772.15625 364.082031 772.289062 363.832031 772.445312 363.597656 C 772.601562 363.363281 772.785156 363.148438 772.988281 362.957031 C 773.195312 362.761719 773.417969 362.59375 773.660156 362.449219 C 773.902344 362.304688 774.15625 362.1875 774.425781 362.101562 C 774.695312 362.015625 774.96875 361.957031 775.25 361.929688 L 876.144531 347.691406 C 878.386719 347.417969 880.636719 347.292969 882.894531 347.324219 C 885.15625 347.292969 887.40625 347.417969 889.652344 347.691406 L 990.539062 361.929688 C 990.820312 361.957031 991.09375 362.015625 991.363281 362.101562 C 991.632812 362.1875 991.886719 362.304688 992.128906 362.449219 C 992.371094 362.59375 992.59375 362.761719 992.800781 362.957031 C 993.003906 363.148438 993.1875 363.363281 993.34375 363.597656 C 993.5 363.832031 993.632812 364.082031 993.734375 364.34375 C 993.835938 364.605469 993.90625 364.878906 993.949219 365.15625 C 993.992188 365.433594 994.003906 365.714844 993.984375 365.996094 C 993.964844 366.277344 993.914062 366.554688 993.832031 366.824219 Z M 993.832031 366.851562 " fill-opacity="1" fill-rule="nonzero"/></g><path fill="#2b3e4c" d="M 951.75 430.152344 L 948.007812 431.457031 L 946.863281 435.226562 L 945.558594 431.484375 L 941.78125 430.332031 L 945.527344 429.03125 L 946.679688 425.261719 L 947.980469 429.003906 Z M 951.75 430.152344 " fill-opacity="1" fill-rule="nonzero"/><path fill="#2b3e4c" d="M 951.65625 415.117188 L 947.917969 416.414062 L 946.765625 420.1875 L 945.464844 416.445312 L 941.695312 415.300781 L 945.4375 413.996094 L 946.582031 410.222656 L 947.886719 413.964844 Z M 951.65625 415.117188 " fill-opacity="1" fill-rule="nonzero"/><path fill="#2b3e4c" d="M 947.941406 401.164062 L 944.203125 402.46875 L 943.054688 406.242188 L 941.75 402.5 L 937.980469 401.347656 L 941.726562 400.046875 L 942.875 396.277344 L 944.171875 400.019531 Z M 947.941406 401.164062 " fill-opacity="1" fill-rule="nonzero"/><path fill="#2b3e4c" d="M 942.78125 387.761719 L 939.035156 389.0625 L 937.894531 392.832031 L 936.589844 389.089844 L 932.820312 387.9375 L 936.558594 386.640625 L 937.707031 382.871094 L 939.003906 386.609375 Z M 942.78125 387.761719 " fill-opacity="1" fill-rule="nonzero"/><path fill="#2b3e4c" d="M 933.085938 376.804688 L 929.34375 378.101562 L 928.191406 381.867188 L 926.894531 378.132812 L 923.121094 376.980469 L 926.863281 375.679688 L 928.015625 371.910156 L 929.3125 375.652344 Z M 933.085938 376.804688 " fill-opacity="1" fill-rule="nonzero"/><path fill="#2b3e4c" d="M 921.847656 368.375 L 918.109375 369.679688 L 916.960938 373.445312 L 915.65625 369.703125 L 911.894531 368.558594 L 915.632812 367.257812 L 916.78125 363.488281 L 918.078125 367.226562 Z M 921.847656 368.375 " fill-opacity="1" fill-rule="nonzero"/><path fill="#2b3e4c" d="M 909.714844 362.488281 L 905.976562 363.792969 L 904.820312 367.5625 L 903.523438 363.816406 L 899.753906 362.667969 L 903.492188 361.363281 L 904.640625 357.597656 L 905.945312 361.339844 Z M 909.714844 362.488281 " fill-opacity="1" fill-rule="nonzero"/><path fill="#2b3e4c" d="M 895.214844 358.777344 L 891.476562 360.074219 L 890.324219 363.84375 L 889.023438 360.105469 L 885.253906 358.957031 L 888.996094 357.660156 L 890.148438 353.882812 L 891.445312 357.628906 Z M 895.214844 358.777344 " fill-opacity="1" fill-rule="nonzero"/><path fill="#2b3e4c" d="M 921.257812 525.542969 L 921.949219 525.257812 L 933.5625 520.40625 C 935.242188 519.757812 936.960938 519.234375 938.71875 518.835938 C 942.964844 518.265625 944.667969 519.167969 946.609375 520.25 C 947.53125 520.757812 946.5625 521.324219 946.5625 521.324219 C 946.5625 521.324219 932.101562 527.46875 931.523438 527.578125 C 930.71875 527.835938 929.902344 528.035156 929.070312 528.167969 C 924.8125 528.671875 923.125 527.734375 921.207031 526.628906 C 920.277344 526.097656 921.257812 525.542969 921.257812 525.542969 Z M 921.257812 525.542969 " fill-opacity="1" fill-rule="evenodd"/><path fill="#2b3e4c" d="M 948.28125 513.855469 L 948.972656 513.570312 L 960.574219 508.710938 C 962.253906 508.0625 963.976562 507.535156 965.734375 507.136719 C 969.980469 506.566406 971.679688 507.472656 973.625 508.554688 C 974.546875 509.0625 973.574219 509.628906 973.574219 509.628906 C 973.574219 509.628906 959.113281 515.773438 958.53125 515.882812 C 957.730469 516.140625 956.910156 516.335938 956.078125 516.472656 C 951.828125 516.976562 950.136719 516.042969 948.214844 514.933594 C 947.300781 514.433594 948.28125 513.855469 948.28125 513.855469 Z M 948.28125 513.855469 " fill-opacity="1" fill-rule="evenodd"/><g clip-path="url(#43732a1298)"><path fill="#2b3e4c" d="M 893.765625 536.136719 L 894.457031 535.851562 L 901.902344 532.746094 L 902.605469 532.453125 L 903.304688 532.160156 L 906.070312 531.003906 C 907.75 530.351562 909.46875 529.824219 911.226562 529.425781 C 915.480469 528.855469 917.175781 529.761719 919.121094 530.84375 C 920.035156 531.351562 919.070312 531.917969 919.070312 531.917969 C 919.070312 531.917969 904.609375 538.0625 904.03125 538.171875 L 903.011719 538.457031 C 902.746094 538.527344 902.492188 538.589844 902.25 538.640625 C 902.007812 538.695312 901.773438 538.738281 901.578125 538.761719 L 901.507812 538.761719 C 897.300781 539.246094 895.621094 538.320312 893.714844 537.210938 C 892.792969 536.679688 893.765625 536.136719 893.765625 536.136719 Z M 893.765625 536.136719 " fill-opacity="1" fill-rule="evenodd"/></g><path fill="#2b3e4c" d="M 968.4375 501.195312 L 967.972656 500.992188 L 968.085938 500.496094 C 969.125 495.980469 974.070312 493.503906 974.277344 493.40625 L 989.453125 485.972656 C 991.996094 484.617188 993.832031 485.710938 994.632812 487.078125 C 995.515625 488.578125 995.476562 490.828125 993.875 491.855469 L 977.535156 500.589844 C 975.363281 501.164062 973.152344 501.496094 970.910156 501.582031 C 970.058594 501.613281 969.234375 501.484375 968.4375 501.195312 Z M 968.4375 501.195312 " fill-opacity="1" fill-rule="evenodd"/><path fill="#2b3e4c" d="M 883.636719 516.792969 C 883.660156 517.007812 883.59375 517.199219 883.449219 517.359375 C 883.300781 517.523438 883.117188 517.601562 882.898438 517.601562 C 882.679688 517.601562 882.496094 517.523438 882.347656 517.359375 C 882.199219 517.199219 882.136719 517.007812 882.15625 516.792969 C 882.15625 512.75 882.117188 494.089844 882.894531 492.1875 C 883.675781 494.09375 883.652344 512.75 883.636719 516.792969 Z M 883.636719 516.792969 " fill-opacity="1" fill-rule="nonzero"/></svg>